<svg width="328" height="47" viewBox="0 0 328 47" fill="none" xmlns="http://www.w3.org/2000/svg">
<path opacity="0.2" d="M0 1L6.66667 1C9.61219 1 12 3.28832 12 6.11111L12 41.8889C12 44.7117 9.61218 47 6.66667 47L-2.01072e-06 47L0 1Z" fill="#C2BDB5"/>
<path opacity="0.2" d="M321.127 2.24105e-07L327.536 5.04235e-07L327.536 46.1422L321.127 46.1422C318.295 46.1422 316 43.8468 316 41.0153L316 5.12692C316 2.2954 318.295 1.00335e-07 321.127 2.24105e-07Z" fill="#C2BDB5"/>
<rect opacity="0.2" x="66" y="3" width="193" height="42" rx="6" fill="#03724A"/>
<path d="M141.732 23.176H139.87V26.97C139.87 27.3153 139.935 27.5627 140.066 27.712C140.206 27.852 140.416 27.9267 140.696 27.936C140.976 27.936 141.321 27.9267 141.732 27.908V29C140.668 29.14 139.889 29.056 139.394 28.748C138.899 28.4307 138.652 27.838 138.652 26.97V23.176H137.266V22H138.652V20.404L139.87 20.04V22H141.732V23.176ZM148.727 28.118C148.008 28.8273 147.135 29.182 146.109 29.182C145.082 29.182 144.209 28.8273 143.491 28.118C142.781 27.4087 142.427 26.536 142.427 25.5C142.427 24.464 142.781 23.5913 143.491 22.882C144.209 22.1727 145.082 21.818 146.109 21.818C147.135 21.818 148.008 22.1727 148.727 22.882C149.445 23.5913 149.805 24.464 149.805 25.5C149.805 26.536 149.445 27.4087 148.727 28.118ZM146.109 27.992C146.809 27.992 147.397 27.754 147.873 27.278C148.349 26.802 148.587 26.2093 148.587 25.5C148.587 24.7907 148.349 24.198 147.873 23.722C147.397 23.246 146.809 23.008 146.109 23.008C145.418 23.008 144.835 23.246 144.359 23.722C143.883 24.198 143.645 24.7907 143.645 25.5C143.645 26.2093 143.883 26.802 144.359 27.278C144.835 27.754 145.418 27.992 146.109 27.992ZM151.856 20.726C151.623 20.726 151.427 20.6467 151.268 20.488C151.11 20.3293 151.03 20.138 151.03 19.914C151.03 19.69 151.11 19.4987 151.268 19.34C151.427 19.172 151.623 19.088 151.856 19.088C152.08 19.088 152.272 19.172 152.43 19.34C152.589 19.4987 152.668 19.69 152.668 19.914C152.668 20.138 152.589 20.3293 152.43 20.488C152.272 20.6467 152.08 20.726 151.856 20.726ZM151.24 29V22H152.458V29H151.24ZM154.317 29V18.78H155.535V29H154.317ZM158.247 26.06C158.368 26.6853 158.653 27.1707 159.101 27.516C159.558 27.8613 160.118 28.034 160.781 28.034C161.705 28.034 162.377 27.6933 162.797 27.012L163.833 27.6C163.151 28.6547 162.125 29.182 160.753 29.182C159.642 29.182 158.737 28.8367 158.037 28.146C157.346 27.446 157.001 26.564 157.001 25.5C157.001 24.4453 157.341 23.568 158.023 22.868C158.704 22.168 159.586 21.818 160.669 21.818C161.695 21.818 162.531 22.182 163.175 22.91C163.828 23.6287 164.155 24.4967 164.155 25.514C164.155 25.6913 164.141 25.8733 164.113 26.06H158.247ZM160.669 22.966C160.015 22.966 159.474 23.1527 159.045 23.526C158.615 23.89 158.349 24.38 158.247 24.996H162.923C162.82 24.3333 162.559 23.8293 162.139 23.484C161.719 23.1387 161.229 22.966 160.669 22.966ZM169.158 23.176H167.296V26.97C167.296 27.3153 167.361 27.5627 167.492 27.712C167.632 27.852 167.842 27.9267 168.122 27.936C168.402 27.936 168.747 27.9267 169.158 27.908V29C168.094 29.14 167.314 29.056 166.82 28.748C166.325 28.4307 166.078 27.838 166.078 26.97V23.176H164.692V22H166.078V20.404L167.296 20.04V22H169.158V23.176ZM179.041 22H180.357L177.557 29H176.129L173.329 22H174.645L176.843 27.698L179.041 22ZM186.909 22H188.127V29H186.909V27.796C186.303 28.72 185.421 29.182 184.263 29.182C183.283 29.182 182.448 28.8273 181.757 28.118C181.067 27.3993 180.721 26.5267 180.721 25.5C180.721 24.4733 181.067 23.6053 181.757 22.896C182.448 22.1773 183.283 21.818 184.263 21.818C185.421 21.818 186.303 22.28 186.909 23.204V22ZM184.417 28.006C185.127 28.006 185.719 27.768 186.195 27.292C186.671 26.8067 186.909 26.2093 186.909 25.5C186.909 24.7907 186.671 24.198 186.195 23.722C185.719 23.2367 185.127 22.994 184.417 22.994C183.717 22.994 183.129 23.2367 182.653 23.722C182.177 24.198 181.939 24.7907 181.939 25.5C181.939 26.2093 182.177 26.8067 182.653 27.292C183.129 27.768 183.717 28.006 184.417 28.006ZM193.263 29.182C192.208 29.182 191.331 28.832 190.631 28.132C189.931 27.4227 189.581 26.5453 189.581 25.5C189.581 24.4547 189.931 23.582 190.631 22.882C191.331 22.1727 192.208 21.818 193.263 21.818C193.953 21.818 194.574 21.986 195.125 22.322C195.675 22.6487 196.086 23.092 196.357 23.652L195.335 24.24C195.157 23.8667 194.882 23.568 194.509 23.344C194.145 23.12 193.729 23.008 193.263 23.008C192.563 23.008 191.975 23.246 191.499 23.722C191.032 24.198 190.799 24.7907 190.799 25.5C190.799 26.2 191.032 26.788 191.499 27.264C191.975 27.74 192.563 27.978 193.263 27.978C193.729 27.978 194.149 27.8707 194.523 27.656C194.896 27.432 195.181 27.1333 195.377 26.76L196.413 27.362C196.114 27.9127 195.685 28.356 195.125 28.692C194.565 29.0187 193.944 29.182 193.263 29.182ZM203.316 22H204.534V29H203.316V27.796C202.709 28.72 201.827 29.182 200.67 29.182C199.69 29.182 198.854 28.8273 198.164 28.118C197.473 27.3993 197.128 26.5267 197.128 25.5C197.128 24.4733 197.473 23.6053 198.164 22.896C198.854 22.1773 199.69 21.818 200.67 21.818C201.827 21.818 202.709 22.28 203.316 23.204V22ZM200.824 28.006C201.533 28.006 202.126 27.768 202.602 27.292C203.078 26.8067 203.316 26.2093 203.316 25.5C203.316 24.7907 203.078 24.198 202.602 23.722C202.126 23.2367 201.533 22.994 200.824 22.994C200.124 22.994 199.536 23.2367 199.06 23.722C198.584 24.198 198.346 24.7907 198.346 25.5C198.346 26.2093 198.584 26.8067 199.06 27.292C199.536 27.768 200.124 28.006 200.824 28.006ZM209.865 21.818C210.686 21.818 211.344 22.0793 211.839 22.602C212.334 23.1153 212.581 23.8153 212.581 24.702V29H211.363V24.772C211.363 24.2027 211.209 23.764 210.901 23.456C210.593 23.1387 210.168 22.98 209.627 22.98C209.02 22.98 208.53 23.1713 208.157 23.554C207.784 23.9273 207.597 24.506 207.597 25.29V29H206.379V22H207.597V23.008C208.092 22.2147 208.848 21.818 209.865 21.818ZM218.089 23.176H216.227V26.97C216.227 27.3153 216.293 27.5627 216.423 27.712C216.563 27.852 216.773 27.9267 217.053 27.936C217.333 27.936 217.679 27.9267 218.089 27.908V29C217.025 29.14 216.246 29.056 215.751 28.748C215.257 28.4307 215.009 27.838 215.009 26.97V23.176H213.623V22H215.009V20.404L216.227 20.04V22H218.089V23.176Z" fill="#483434"/>
<g clip-path="url(#clip0)">
<path d="M113.157 14.0469C113.157 15.6165 111.88 16.8938 110.31 16.8938C108.741 16.8938 107.463 15.6165 107.463 14.0469C107.463 12.4773 108.741 11.2 110.31 11.2C111.88 11.2 113.157 12.4773 113.157 14.0469ZM111.526 14.0469C111.526 13.3764 110.981 12.8312 110.31 12.8312C109.64 12.8312 109.095 13.3764 109.095 14.0469C109.095 14.7173 109.64 15.2625 110.31 15.2625C110.981 15.2625 111.526 14.7173 111.526 14.0469Z" fill="#483434" stroke="#CDE3DB" stroke-width="0.4"/>
<path d="M94.2312 29.4549V29.3136L94.0981 29.2664C92.993 28.8745 92.2 27.8186 92.2 26.582V21.0469C92.2 19.4773 93.4773 18.2 95.0469 18.2H99.1094C100.679 18.2 101.956 19.4773 101.956 21.0469V26.582C101.956 27.8186 101.163 28.8746 100.058 29.2664L99.925 29.3136V29.4549V35.9258C99.925 36.3763 99.5598 36.7414 99.1094 36.7414C98.6589 36.7414 98.2937 36.3763 98.2937 35.9258V28.6133C98.2937 28.1628 98.6589 27.7977 99.1094 27.7977C99.7798 27.7977 100.325 27.2525 100.325 26.582V21.0469C100.325 20.3764 99.7798 19.8312 99.1094 19.8312H95.0469C94.3764 19.8312 93.8312 20.3764 93.8312 21.0469V26.582C93.8312 27.2525 94.3764 27.7977 95.0469 27.7977C95.4973 27.7977 95.8625 28.1628 95.8625 28.6133V35.9258C95.8625 36.3763 95.4973 36.7414 95.0469 36.7414C94.5964 36.7414 94.2312 36.3763 94.2312 35.9258V29.4549Z" fill="#483434" stroke="#CDE3DB" stroke-width="0.4"/>
<path d="M113.582 23.9052L113.612 23.8051L114.228 21.7848L114.228 21.7848C114.477 20.9646 114.336 20.0936 113.839 19.393L113.839 19.393C113.352 18.7072 112.597 18.2956 111.766 18.2612C111.754 18.2608 111.743 18.2605 111.732 18.2605H108.962C108.951 18.2605 108.94 18.2608 108.928 18.2613L108.921 18.0614M113.582 23.9052L104.925 31.2797C104.923 31.1894 104.905 30.0585 105.164 28.6004C105.424 27.1391 105.958 25.37 107.048 23.9874L107.113 23.9053L107.082 23.8053L106.467 21.7848L106.467 21.7848C106.217 20.9646 106.359 20.0936 106.856 19.393L106.856 19.393C107.342 18.7071 108.097 18.2955 108.929 18.2612L108.921 18.0614M113.582 23.9052L113.647 23.9873C114.293 24.8069 114.807 25.8391 115.172 27.0688L115.363 27.0119M113.582 23.9052L106.276 21.8431C106.008 20.9636 106.16 20.0283 106.693 19.2773C107.215 18.5414 108.027 18.0983 108.921 18.0614M108.921 18.0614C108.934 18.0609 108.948 18.0605 108.962 18.0605H111.732C111.746 18.0605 111.76 18.0609 111.774 18.0614C112.668 18.0983 113.48 18.5414 114.002 19.2773C114.535 20.0283 114.687 20.9636 114.419 21.8431L113.804 23.8634C114.469 24.7066 114.993 25.7628 115.363 27.0119M115.363 27.0119L115.172 27.0688C115.807 29.2083 115.772 31.2023 115.77 31.2795L115.77 31.2796C115.76 31.7231 115.398 32.0775 114.954 32.0775H113.431H113.231V32.2775V35.9846C113.231 36.435 112.866 36.8001 112.415 36.8001C111.965 36.8001 111.6 36.435 111.6 35.9845V31.2619C111.6 30.8114 111.965 30.4462 112.415 30.4462H113.896H114.113L114.096 30.23C114.039 29.5307 113.908 28.5439 113.608 27.5331C113.252 26.3335 112.739 25.3637 112.076 24.6617M115.363 27.0119L112.076 24.6617M112.076 24.6617C111.875 24.4487 111.804 24.1443 111.889 23.8641L111.889 23.8641L112.667 21.3096C112.667 21.3096 112.667 21.3096 112.667 21.3096C112.768 20.9766 112.71 20.6212 112.508 20.3367C112.401 20.1851 112.151 19.918 111.719 19.8921L111.719 19.8917H111.707H108.987V19.8913L108.975 19.8921C108.543 19.9181 108.294 20.1852 108.186 20.3367L108.186 20.3367C107.984 20.6212 107.926 20.9766 108.027 21.3095L108.027 21.3096L108.805 23.8641L108.805 23.8641C108.891 24.1443 108.819 24.4487 108.618 24.6617C107.907 25.4145 107.435 26.4224 107.124 27.426C106.812 28.4316 106.658 29.4474 106.594 30.2298L106.576 30.4463H106.793H108.279C108.73 30.4463 109.095 30.8114 109.095 31.2619V35.9846C109.095 36.435 108.73 36.8002 108.279 36.8002C107.829 36.8002 107.463 36.435 107.463 35.9846V32.2775V32.0775H107.263H105.74C105.296 32.0775 104.934 31.7231 104.925 31.2797L112.076 24.6617Z" fill="#483434" stroke="#CDE3DB" stroke-width="0.4"/>
<path d="M99.9541 14.0469C99.9541 15.6165 98.6768 16.8938 97.1072 16.8938C95.5376 16.8938 94.2603 15.6165 94.2603 14.0469C94.2603 12.4773 95.5376 11.2 97.1072 11.2C98.6768 11.2 99.9541 12.4773 99.9541 14.0469ZM98.3228 14.0469C98.3228 13.3764 97.7777 12.8312 97.1072 12.8312C96.4367 12.8312 95.8916 13.3764 95.8916 14.0469C95.8916 14.7173 96.4367 15.2625 97.1072 15.2625C97.7777 15.2625 98.3228 14.7173 98.3228 14.0469Z" fill="#483434" stroke="#CDE3DB" stroke-width="0.4"/>
</g>
<defs>
<clipPath id="clip0">
<rect width="26" height="26" fill="white" transform="translate(91 11)"/>
</clipPath>
</defs>
</svg>
