<svg width="257" height="934" viewBox="0 0 257 934" fill="none" xmlns="http://www.w3.org/2000/svg">
<path opacity="0.2" d="M34.1794 40L6.83589 40C3.06053 40 -1.3378e-07 43.0605 -2.98806e-07 46.8359L-1.49403e-06 74.1794C-1.65906e-06 77.9548 3.06053 81.0153 6.83589 81.0153L34.1794 81.0153C37.9548 81.0153 41.0153 77.9548 41.0153 74.1794L41.0153 46.8359C41.0153 43.0605 37.9548 40 34.1794 40Z" fill="#BDBDC2"/>
<path d="M20.7571 55.9L21.7971 55.9L21.7971 65L20.6011 65L20.6011 57.2L18.6641 57.772L18.3651 56.732L20.7571 55.9Z" fill="#454C66"/>
<path opacity="0.2" d="M91.1948 40L63.8513 40C60.0759 40 57.0154 43.0605 57.0154 46.8359L57.0154 74.1794C57.0154 77.9548 60.0759 81.0153 63.8513 81.0153L91.1948 81.0153C94.9702 81.0153 98.0307 77.9548 98.0307 74.1794L98.0307 46.8359C98.0307 43.0605 94.9702 40 91.1948 40Z" fill="#BDBDC2"/>
<path d="M74.5556 65L74.5556 64.012L77.7666 60.736C78.6246 59.878 79.0536 59.1413 79.0536 58.526C79.0536 58.0147 78.8976 57.616 78.5856 57.33C78.2736 57.044 77.8923 56.901 77.4416 56.901C76.5836 56.901 75.9596 57.3083 75.5696 58.123L74.5556 57.525C74.8416 56.9357 75.236 56.4893 75.7386 56.186C76.25 55.8827 76.8133 55.731 77.4286 55.731C78.1913 55.731 78.8543 55.9823 79.4176 56.485C79.981 56.9877 80.2626 57.6637 80.2626 58.513C80.2626 59.4317 79.721 60.4327 78.6376 61.516L76.3106 63.83L80.4316 63.83L80.4316 65L74.5556 65Z" fill="#454C66"/>
<path opacity="0.2" d="M34.1794 97.0154L6.83589 97.0154C3.06053 97.0154 -1.3378e-07 100.076 -2.98806e-07 103.851L-1.49403e-06 131.195C-1.65906e-06 134.97 3.06053 138.031 6.83589 138.031L34.1794 138.031C37.9548 138.031 41.0153 134.97 41.0153 131.195L41.0153 103.851C41.0153 100.076 37.9548 97.0154 34.1794 97.0154Z" fill="#BDBDC2"/>
<path d="M21.1295 116.646C21.8228 116.776 22.3905 117.075 22.8325 117.543C23.2745 118.011 23.4955 118.605 23.4955 119.324C23.4955 120.208 23.1922 120.906 22.5855 121.417C21.9788 121.929 21.2422 122.184 20.3755 122.184C19.6822 122.184 19.0668 122.028 18.5295 121.716C17.9922 121.396 17.6108 120.936 17.3855 120.338L18.3995 119.74C18.6682 120.581 19.3268 121.001 20.3755 121.001C20.9388 121.001 21.3982 120.854 21.7535 120.559C22.1088 120.265 22.2865 119.853 22.2865 119.324C22.2865 118.796 22.1088 118.384 21.7535 118.089C21.3982 117.786 20.9388 117.634 20.3755 117.634L20.0635 117.634L19.5825 116.893L21.6885 114.046L17.6455 114.046L17.6455 112.915L23.1055 112.915L23.1055 113.981L21.1295 116.646Z" fill="#454C66"/>
<path opacity="0.2" d="M91.1948 97.0154L63.8513 97.0154C60.0759 97.0154 57.0154 100.076 57.0154 103.851L57.0154 131.195C57.0154 134.97 60.0759 138.031 63.8513 138.031L91.1948 138.031C94.9702 138.031 98.0307 134.97 98.0307 131.195L98.0307 103.851C98.0307 100.076 94.9702 97.0154 91.1948 97.0154Z" fill="#BDBDC2"/>
<path d="M81.0119 119.155L81.0119 120.286L79.9069 120.286L79.9069 122.015L78.6979 122.015L78.6979 120.286L74.0569 120.286L74.0569 119.155L77.3199 112.915L78.6199 112.915L75.3569 119.155L78.6979 119.155L78.6979 116.581L79.9069 116.581L79.9069 119.155L81.0119 119.155Z" fill="#454C66"/>
<path opacity="0.2" d="M34.1794 154.031L6.83589 154.031C3.06053 154.031 -1.3378e-07 157.091 -2.98806e-07 160.867L-1.49403e-06 188.21C-1.65906e-06 191.986 3.06053 195.046 6.83589 195.046L34.1794 195.046C37.9548 195.046 41.0153 191.986 41.0153 188.21L41.0153 160.867C41.0153 157.091 37.9548 154.031 34.1794 154.031Z" fill="#BDBDC2"/>
<path d="M20.4807 173.48C21.3387 173.48 22.0624 173.735 22.6517 174.247C23.2497 174.749 23.5487 175.447 23.5487 176.34C23.5487 177.224 23.2454 177.921 22.6387 178.433C22.032 178.944 21.2954 179.2 20.4287 179.2C19.7354 179.2 19.1157 179.035 18.5697 178.706C18.0237 178.368 17.6424 177.882 17.4257 177.25L18.4527 176.665C18.574 177.107 18.808 177.445 19.1547 177.679C19.5014 177.904 19.926 178.017 20.4287 178.017C21.0007 178.017 21.4644 177.869 21.8197 177.575C22.175 177.28 22.3527 176.868 22.3527 176.34C22.3527 175.811 22.175 175.399 21.8197 175.105C21.4644 174.801 21.0094 174.65 20.4547 174.65L17.8807 174.65L18.2187 169.931L23.1977 169.931L23.1977 171.062L19.3107 171.062L19.1547 173.48L20.4807 173.48Z" fill="#454C66"/>
<path opacity="0.2" d="M91.1948 154.031L63.8513 154.031C60.0759 154.031 57.0154 157.091 57.0154 160.867L57.0154 188.21C57.0154 191.986 60.0759 195.046 63.8513 195.046L91.1948 195.046C94.9702 195.046 98.0307 191.986 98.0307 188.21L98.0307 160.867C98.0307 157.091 94.9702 154.031 91.1948 154.031Z" fill="#BDBDC2"/>
<path d="M77.5148 173.077C78.4248 173.077 79.1745 173.363 79.7638 173.935C80.3532 174.498 80.6478 175.23 80.6478 176.132C80.6478 177.033 80.3532 177.77 79.7638 178.342C79.1745 178.914 78.4248 179.2 77.5148 179.2C76.5962 179.2 75.8422 178.914 75.2528 178.342C74.6722 177.77 74.3818 177.033 74.3818 176.132C74.3818 175.43 74.5638 174.823 74.9278 174.312L77.8528 169.931L79.2308 169.931L77.0858 173.103C77.2765 173.085 77.4195 173.077 77.5148 173.077ZM76.1108 177.523C76.4748 177.869 76.9428 178.043 77.5148 178.043C78.0868 178.043 78.5505 177.869 78.9058 177.523C79.2698 177.167 79.4518 176.704 79.4518 176.132C79.4518 175.56 79.2698 175.1 78.9058 174.754C78.5505 174.407 78.0868 174.234 77.5148 174.234C76.9342 174.234 76.4662 174.407 76.1108 174.754C75.7555 175.1 75.5778 175.56 75.5778 176.132C75.5778 176.704 75.7555 177.167 76.1108 177.523Z" fill="#454C66"/>
<path opacity="0.2" d="M192.21 40L164.867 40C161.091 40 158.031 43.0605 158.031 46.8359L158.031 74.1794C158.031 77.9548 161.091 81.0153 164.867 81.0153L192.21 81.0153C195.986 81.0153 199.046 77.9548 199.046 74.1794L199.046 46.8359C199.046 43.0605 195.986 40 192.21 40Z" fill="#BDBDC2"/>
<path d="M175.601 55.9L176.641 55.9L176.641 65L175.445 65L175.445 57.2L173.508 57.772L173.209 56.732L175.601 55.9ZM177.895 55.9L183.576 55.9L183.576 56.979L180.261 65L179 65L182.289 57.044L177.895 57.044L177.895 55.9Z" fill="#454C66"/>
<path opacity="0.2" d="M249.226 40L221.882 40C218.107 40 215.046 43.0605 215.046 46.8359L215.046 74.1794C215.046 77.9548 218.107 81.0153 221.882 81.0153L249.226 81.0153C253.001 81.0153 256.061 77.9548 256.061 74.1794L256.061 46.8359C256.061 43.0605 253.001 40 249.226 40Z" fill="#BDBDC2"/>
<path d="M232.198 55.9L233.238 55.9L233.238 65L232.042 65L232.042 57.2L230.105 57.772L229.806 56.732L232.198 55.9ZM239.562 60.294C240.004 60.5193 240.35 60.8227 240.602 61.204C240.853 61.5853 240.979 62.0187 240.979 62.504C240.979 63.336 240.688 63.9903 240.108 64.467C239.527 64.935 238.777 65.169 237.859 65.169C236.949 65.169 236.203 64.935 235.623 64.467C235.042 63.9903 234.752 63.336 234.752 62.504C234.752 62.0187 234.877 61.5853 235.129 61.204C235.38 60.8227 235.727 60.5193 236.169 60.294C235.423 59.826 235.051 59.163 235.051 58.305C235.051 57.4817 235.324 56.849 235.87 56.407C236.424 55.9563 237.087 55.731 237.859 55.731C238.639 55.731 239.302 55.9563 239.848 56.407C240.402 56.849 240.68 57.4817 240.68 58.305C240.68 59.163 240.307 59.826 239.562 60.294ZM237.859 56.888C237.399 56.888 237.014 57.0093 236.702 57.252C236.398 57.4947 236.247 57.8543 236.247 58.331C236.247 58.7903 236.403 59.15 236.715 59.41C237.027 59.6613 237.408 59.787 237.859 59.787C238.309 59.787 238.691 59.6613 239.003 59.41C239.315 59.15 239.471 58.7903 239.471 58.331C239.471 57.8543 239.319 57.4947 239.016 57.252C238.712 57.0093 238.327 56.888 237.859 56.888ZM237.859 64.012C238.439 64.012 238.903 63.8777 239.25 63.609C239.605 63.3317 239.783 62.9373 239.783 62.426C239.783 61.9233 239.605 61.5377 239.25 61.269C238.903 60.9917 238.439 60.853 237.859 60.853C237.287 60.853 236.823 60.9917 236.468 61.269C236.121 61.5377 235.948 61.9233 235.948 62.426C235.948 62.9373 236.121 63.3317 236.468 63.609C236.823 63.8777 237.287 64.012 237.859 64.012Z" fill="#454C66"/>
<path opacity="0.2" d="M192.21 97.0154L164.867 97.0154C161.091 97.0154 158.031 100.076 158.031 103.851L158.031 131.195C158.031 134.97 161.091 138.031 164.867 138.031L192.21 138.031C195.986 138.031 199.046 134.97 199.046 131.195L199.046 103.851C199.046 100.076 195.986 97.0154 192.21 97.0154Z" fill="#BDBDC2"/>
<path d="M175.29 112.915L176.33 112.915L176.33 122.015L175.134 122.015L175.134 114.215L173.197 114.787L172.898 113.747L175.29 112.915ZM183.98 115.801C183.98 116.503 183.794 117.114 183.421 117.634L183.434 117.634L180.496 122.015L179.131 122.015L181.289 118.83C181.098 118.848 180.951 118.856 180.847 118.856C179.928 118.856 179.174 118.575 178.585 118.011C178.004 117.439 177.714 116.703 177.714 115.801C177.714 114.9 178.004 114.168 178.585 113.604C179.174 113.032 179.928 112.746 180.847 112.746C181.766 112.746 182.515 113.032 183.096 113.604C183.685 114.168 183.98 114.9 183.98 115.801ZM179.443 114.423C179.088 114.77 178.91 115.229 178.91 115.801C178.91 116.373 179.088 116.837 179.443 117.192C179.807 117.539 180.275 117.712 180.847 117.712C181.419 117.712 181.883 117.539 182.238 117.192C182.602 116.837 182.784 116.373 182.784 115.801C182.784 115.229 182.606 114.77 182.251 114.423C181.896 114.077 181.428 113.903 180.847 113.903C180.275 113.903 179.807 114.077 179.443 114.423Z" fill="#454C66"/>
<path opacity="0.2" d="M249.226 97.0154L221.882 97.0154C218.107 97.0154 215.046 100.076 215.046 103.851L215.046 131.195C215.046 134.97 218.107 138.031 221.882 138.031L249.226 138.031C253.001 138.031 256.061 134.97 256.061 131.195L256.061 103.851C256.061 100.076 253.001 97.0154 249.226 97.0154Z" fill="#BDBDC2"/>
<path d="M228.556 122.015L228.556 121.027L231.767 117.751C232.625 116.893 233.054 116.157 233.054 115.541C233.054 115.03 232.898 114.631 232.586 114.345C232.274 114.059 231.892 113.916 231.442 113.916C230.584 113.916 229.96 114.324 229.57 115.138L228.556 114.54C228.842 113.951 229.236 113.505 229.739 113.201C230.25 112.898 230.813 112.746 231.429 112.746C232.191 112.746 232.854 112.998 233.418 113.5C233.981 114.003 234.263 114.679 234.263 115.528C234.263 116.447 233.721 117.448 232.638 118.531L230.311 120.845L234.432 120.845L234.432 122.015L228.556 122.015ZM241.498 120.897C240.883 121.755 240.02 122.184 238.911 122.184C237.802 122.184 236.939 121.755 236.324 120.897C235.709 120.039 235.401 118.895 235.401 117.465C235.401 116.035 235.709 114.891 236.324 114.033C236.939 113.175 237.802 112.746 238.911 112.746C240.02 112.746 240.883 113.175 241.498 114.033C242.113 114.891 242.421 116.035 242.421 117.465C242.421 118.895 242.113 120.039 241.498 120.897ZM237.208 120.078C237.607 120.694 238.174 121.001 238.911 121.001C239.648 121.001 240.215 120.694 240.614 120.078C241.021 119.463 241.225 118.592 241.225 117.465C241.225 116.339 241.021 115.468 240.614 114.852C240.215 114.228 239.648 113.916 238.911 113.916C238.174 113.916 237.607 114.224 237.208 114.839C236.809 115.455 236.61 116.33 236.61 117.465C236.61 118.592 236.809 119.463 237.208 120.078Z" fill="#454C66"/>
<path opacity="0.2" d="M192.21 154.031L164.867 154.031C161.091 154.031 158.031 157.091 158.031 160.867L158.031 188.21C158.031 191.986 161.091 195.046 164.867 195.046L192.21 195.046C195.986 195.046 199.046 191.986 199.046 188.21L199.046 160.867C199.046 157.091 195.986 154.031 192.21 154.031Z" fill="#BDBDC2"/>
<path d="M173.286 179.031L173.286 178.043L176.497 174.767C177.355 173.909 177.784 173.172 177.784 172.557C177.784 172.045 177.628 171.647 177.316 171.361C177.004 171.075 176.623 170.932 176.172 170.932C175.314 170.932 174.69 171.339 174.3 172.154L173.286 171.556C173.572 170.966 173.966 170.52 174.469 170.217C174.98 169.913 175.544 169.762 176.159 169.762C176.922 169.762 177.585 170.013 178.148 170.516C178.711 171.018 178.993 171.694 178.993 172.544C178.993 173.462 178.451 174.463 177.368 175.547L175.041 177.861L179.162 177.861L179.162 179.031L173.286 179.031ZM182.184 169.931L183.224 169.931L183.224 179.031L182.028 179.031L182.028 171.231L180.091 171.803L179.792 170.763L182.184 169.931Z" fill="#454C66"/>
<path opacity="0.2" d="M249.226 154.031L221.882 154.031C218.107 154.031 215.046 157.091 215.046 160.867L215.046 188.21C215.046 191.986 218.107 195.046 221.882 195.046L249.226 195.046C253.001 195.046 256.061 191.986 256.061 188.21L256.061 160.867C256.061 157.091 253.001 154.031 249.226 154.031Z" fill="#BDBDC2"/>
<path d="M229.159 179.031L229.159 178.043L232.37 174.767C233.228 173.909 233.657 173.172 233.657 172.557C233.657 172.045 233.501 171.647 233.189 171.361C232.877 171.075 232.495 170.932 232.045 170.932C231.187 170.932 230.563 171.339 230.173 172.154L229.159 171.556C229.445 170.966 229.839 170.52 230.342 170.217C230.853 169.913 231.416 169.762 232.032 169.762C232.794 169.762 233.457 170.013 234.021 170.516C234.584 171.018 234.866 171.694 234.866 172.544C234.866 173.462 234.324 174.463 233.241 175.547L230.914 177.861L235.035 177.861L235.035 179.031L229.159 179.031ZM236.014 179.031L236.014 178.043L239.225 174.767C240.083 173.909 240.512 173.172 240.512 172.557C240.512 172.045 240.356 171.647 240.044 171.361C239.732 171.075 239.351 170.932 238.9 170.932C238.042 170.932 237.418 171.339 237.028 172.154L236.014 171.556C236.3 170.966 236.694 170.52 237.197 170.217C237.708 169.913 238.272 169.762 238.887 169.762C239.65 169.762 240.313 170.013 240.876 170.516C241.439 171.018 241.721 171.694 241.721 172.544C241.721 173.462 241.179 174.463 240.096 175.547L237.769 177.861L241.89 177.861L241.89 179.031L236.014 179.031Z" fill="#454C66"/>
<path opacity="0.2" d="M34.1794 275.046L6.83589 275.046C3.06053 275.046 -1.3378e-07 278.106 -2.98806e-07 281.882L-1.49403e-06 309.225C-1.65906e-06 313.001 3.06053 316.061 6.83589 316.061L34.1794 316.061C37.9548 316.061 41.0153 313.001 41.0153 309.225L41.0153 281.882C41.0153 278.106 37.9548 275.046 34.1794 275.046Z" fill="#BDBDC2"/>
<path d="M17.5475 290.946L23.2285 290.946L23.2285 292.025L19.9135 300.046L18.6525 300.046L21.9415 292.09L17.5475 292.09L17.5475 290.946Z" fill="#454C66"/>
<path opacity="0.2" d="M91.1948 275.046L63.8513 275.046C60.0759 275.046 57.0154 278.106 57.0154 281.882L57.0154 309.225C57.0154 313.001 60.0759 316.061 63.8513 316.061L91.1948 316.061C94.9702 316.061 98.0307 313.001 98.0307 309.225L98.0307 281.882C98.0307 278.106 94.9702 275.046 91.1948 275.046Z" fill="#BDBDC2"/>
<path d="M79.2139 295.34C79.6559 295.565 80.0026 295.869 80.2539 296.25C80.5052 296.631 80.6309 297.065 80.6309 297.55C80.6309 298.382 80.3406 299.036 79.7599 299.513C79.1792 299.981 78.4296 300.215 77.5109 300.215C76.6009 300.215 75.8556 299.981 75.2749 299.513C74.6942 299.036 74.4039 298.382 74.4039 297.55C74.4039 297.065 74.5296 296.631 74.7809 296.25C75.0322 295.869 75.3789 295.565 75.8209 295.34C75.0756 294.872 74.7029 294.209 74.7029 293.351C74.7029 292.528 74.9759 291.895 75.5219 291.453C76.0766 291.002 76.7396 290.777 77.5109 290.777C78.2909 290.777 78.9539 291.002 79.4999 291.453C80.0546 291.895 80.3319 292.528 80.3319 293.351C80.3319 294.209 79.9592 294.872 79.2139 295.34ZM77.5109 291.934C77.0516 291.934 76.6659 292.055 76.3539 292.298C76.0506 292.541 75.8989 292.9 75.8989 293.377C75.8989 293.836 76.0549 294.196 76.3669 294.456C76.6789 294.707 77.0602 294.833 77.5109 294.833C77.9616 294.833 78.3429 294.707 78.6549 294.456C78.9669 294.196 79.1229 293.836 79.1229 293.377C79.1229 292.9 78.9712 292.541 78.6679 292.298C78.3646 292.055 77.9789 291.934 77.5109 291.934ZM77.5109 299.058C78.0916 299.058 78.5552 298.924 78.9019 298.655C79.2572 298.378 79.4349 297.983 79.4349 297.472C79.4349 296.969 79.2572 296.584 78.9019 296.315C78.5552 296.038 78.0916 295.899 77.5109 295.899C76.9389 295.899 76.4752 296.038 76.1199 296.315C75.7732 296.584 75.5999 296.969 75.5999 297.472C75.5999 297.983 75.7732 298.378 76.1199 298.655C76.4752 298.924 76.9389 299.058 77.5109 299.058Z" fill="#454C66"/>
<path opacity="0.2" d="M34.1794 332.061L6.83589 332.061C3.06053 332.061 -1.3378e-07 335.122 -2.98806e-07 338.897L-1.49403e-06 366.24C-1.65906e-06 370.016 3.06053 373.076 6.83589 373.076L34.1794 373.076C37.9548 373.076 41.0153 370.016 41.0153 366.24L41.0153 338.897C41.0153 335.122 37.9548 332.061 34.1794 332.061Z" fill="#BDBDC2"/>
<path d="M23.6324 350.847C23.6324 351.549 23.4461 352.16 23.0734 352.68L23.0864 352.68L20.1484 357.061L18.7834 357.061L20.9414 353.876C20.7508 353.893 20.6034 353.902 20.4994 353.902C19.5808 353.902 18.8268 353.62 18.2374 353.057C17.6568 352.485 17.3664 351.748 17.3664 350.847C17.3664 349.946 17.6568 349.213 18.2374 348.65C18.8268 348.078 19.5808 347.792 20.4994 347.792C21.4181 347.792 22.1678 348.078 22.7484 348.65C23.3378 349.213 23.6324 349.946 23.6324 350.847ZM19.0954 349.469C18.7401 349.816 18.5624 350.275 18.5624 350.847C18.5624 351.419 18.7401 351.883 19.0954 352.238C19.4594 352.585 19.9274 352.758 20.4994 352.758C21.0714 352.758 21.5351 352.585 21.8904 352.238C22.2544 351.883 22.4364 351.419 22.4364 350.847C22.4364 350.275 22.2588 349.816 21.9034 349.469C21.5481 349.122 21.0801 348.949 20.4994 348.949C19.9274 348.949 19.4594 349.122 19.0954 349.469Z" fill="#454C66"/>
<path opacity="0.2" d="M91.1948 332.061L63.8513 332.061C60.0759 332.061 57.0154 335.122 57.0154 338.897L57.0154 366.24C57.0154 370.016 60.0759 373.076 63.8513 373.076L91.1948 373.076C94.9702 373.076 98.0307 370.016 98.0307 366.24L98.0307 338.897C98.0307 335.122 94.9702 332.061 91.1948 332.061Z" fill="#BDBDC2"/>
<path d="M80.6478 350.847C80.6478 351.549 80.4615 352.16 80.0888 352.68L80.1018 352.68L77.1638 357.061L75.7988 357.061L77.9568 353.876C77.7662 353.893 77.6188 353.902 77.5148 353.902C76.5962 353.902 75.8422 353.62 75.2528 353.057C74.6722 352.485 74.3818 351.748 74.3818 350.847C74.3818 349.946 74.6722 349.213 75.2528 348.65C75.8422 348.078 76.5962 347.792 77.5148 347.792C78.4335 347.792 79.1832 348.078 79.7638 348.65C80.3532 349.213 80.6478 349.946 80.6478 350.847ZM76.1108 349.469C75.7555 349.816 75.5778 350.275 75.5778 350.847C75.5778 351.419 75.7555 351.883 76.1108 352.238C76.4748 352.585 76.9428 352.758 77.5148 352.758C78.0868 352.758 78.5505 352.585 78.9058 352.238C79.2698 351.883 79.4518 351.419 79.4518 350.847C79.4518 350.275 79.2742 349.816 78.9188 349.469C78.5635 349.122 78.0955 348.949 77.5148 348.949C76.9428 348.949 76.4748 349.122 76.1108 349.469Z" fill="#454C66"/>
<path opacity="0.2" d="M34.1794 389.077L6.83589 389.077C3.06053 389.077 -1.3378e-07 392.137 -2.98806e-07 395.913L-1.49403e-06 423.256C-1.65906e-06 427.031 3.06053 430.092 6.83589 430.092L34.1794 430.092C37.9548 430.092 41.0153 427.031 41.0153 423.256L41.0153 395.913C41.0153 392.137 37.9548 389.077 34.1794 389.077Z" fill="#BDBDC2"/>
<path d="M18.4402 404.977L19.4802 404.977L19.4802 414.077L18.2842 414.077L18.2842 406.277L16.3472 406.849L16.0482 405.809L18.4402 404.977ZM23.074 404.977L24.114 404.977L24.114 414.077L22.918 414.077L22.918 406.277L20.981 406.849L20.682 405.809L23.074 404.977Z" fill="#454C66"/>
<path opacity="0.2" d="M91.1948 389.077L63.8513 389.077C60.0759 389.077 57.0154 392.137 57.0154 395.913L57.0154 423.256C57.0154 427.031 60.0759 430.092 63.8513 430.092L91.1948 430.092C94.9702 430.092 98.0307 427.031 98.0307 423.256L98.0307 395.913C98.0307 392.137 94.9702 389.077 91.1948 389.077Z" fill="#BDBDC2"/>
<path d="M73.8448 404.977L74.8848 404.977L74.8848 414.077L73.6888 414.077L73.6888 406.277L71.7518 406.849L71.4528 405.809L73.8448 404.977ZM76.3725 414.077L76.3725 413.089L79.5835 409.813C80.4415 408.955 80.8705 408.218 80.8705 407.603C80.8705 407.091 80.7145 406.693 80.4025 406.407C80.0905 406.121 79.7092 405.978 79.2585 405.978C78.4005 405.978 77.7765 406.385 77.3865 407.2L76.3725 406.602C76.6585 406.012 77.0529 405.566 77.5555 405.263C78.0669 404.959 78.6302 404.808 79.2455 404.808C80.0082 404.808 80.6712 405.059 81.2345 405.562C81.7979 406.064 82.0795 406.74 82.0795 407.59C82.0795 408.508 81.5379 409.509 80.4545 410.593L78.1275 412.907L82.2485 412.907L82.2485 414.077L76.3725 414.077Z" fill="#454C66"/>
<path opacity="0.2" d="M34.1794 446.092L6.83589 446.092C3.06053 446.092 -1.3378e-07 449.152 -2.98806e-07 452.928L-1.49403e-06 480.271C-1.65906e-06 484.047 3.06053 487.107 6.83589 487.107L34.1794 487.107C37.9548 487.107 41.0153 484.047 41.0153 480.271L41.0153 452.928C41.0153 449.152 37.9548 446.092 34.1794 446.092Z" fill="#BDBDC2"/>
<path d="M17.2786 461.992L18.3186 461.992L18.3186 471.092L17.1226 471.092L17.1226 463.292L15.1856 463.864L14.8866 462.824L17.2786 461.992ZM23.4464 465.723C24.1397 465.853 24.7074 466.152 25.1494 466.62C25.5914 467.088 25.8124 467.681 25.8124 468.401C25.8124 469.285 25.509 469.982 24.9024 470.494C24.2957 471.005 23.559 471.261 22.6924 471.261C21.999 471.261 21.3837 471.105 20.8464 470.793C20.309 470.472 19.9277 470.013 19.7024 469.415L20.7164 468.817C20.985 469.657 21.6437 470.078 22.6924 470.078C23.2557 470.078 23.715 469.93 24.0704 469.636C24.4257 469.341 24.6034 468.929 24.6034 468.401C24.6034 467.872 24.4257 467.46 24.0704 467.166C23.715 466.862 23.2557 466.711 22.6924 466.711L22.3804 466.711L21.8994 465.97L24.0054 463.123L19.9624 463.123L19.9624 461.992L25.4224 461.992L25.4224 463.058L23.4464 465.723Z" fill="#454C66"/>
<path opacity="0.2" d="M91.1948 446.092L63.8513 446.092C60.0759 446.092 57.0154 449.152 57.0154 452.928L57.0154 480.271C57.0154 484.047 60.0759 487.107 63.8513 487.107L91.1948 487.107C94.9702 487.107 98.0307 484.047 98.0307 480.271L98.0307 452.928C98.0307 449.152 94.9702 446.092 91.1948 446.092Z" fill="#BDBDC2"/>
<path d="M74.002 461.992L75.042 461.992L75.042 471.092L73.846 471.092L73.846 463.292L71.909 463.864L71.61 462.824L74.002 461.992ZM83.3288 468.232L83.3288 469.363L82.2238 469.363L82.2238 471.092L81.0148 471.092L81.0148 469.363L76.3738 469.363L76.3738 468.232L79.6368 461.992L80.9368 461.992L77.6738 468.232L81.0148 468.232L81.0148 465.658L82.2238 465.658L82.2238 468.232L83.3288 468.232Z" fill="#454C66"/>
<path opacity="0.2" d="M34.1794 503.107L6.83589 503.107C3.06053 503.107 -1.3378e-07 506.168 -2.98806e-07 509.943L-1.49403e-06 537.287C-1.65906e-06 541.062 3.06053 544.123 6.83589 544.123L34.1794 544.123C37.9548 544.123 41.0153 541.062 41.0153 537.287L41.0153 509.943C41.0153 506.168 37.9548 503.107 34.1794 503.107Z" fill="#BDBDC2"/>
<path d="M17.2278 519.007L18.2678 519.007L18.2678 528.107L17.0718 528.107L17.0718 520.307L15.1348 520.879L14.8358 519.839L17.2278 519.007ZM22.7976 522.556C23.6556 522.556 24.3793 522.812 24.9686 523.323C25.5666 523.826 25.8656 524.524 25.8656 525.416C25.8656 526.3 25.5623 526.998 24.9556 527.509C24.3489 528.021 23.6123 528.276 22.7456 528.276C22.0523 528.276 21.4326 528.112 20.8866 527.782C20.3406 527.444 19.9593 526.959 19.7426 526.326L20.7696 525.741C20.8909 526.183 21.1249 526.521 21.4716 526.755C21.8183 526.981 22.2429 527.093 22.7456 527.093C23.3176 527.093 23.7813 526.946 24.1366 526.651C24.4919 526.357 24.6696 525.945 24.6696 525.416C24.6696 524.888 24.4919 524.476 24.1366 524.181C23.7813 523.878 23.3263 523.726 22.7716 523.726L20.1976 523.726L20.5356 519.007L25.5146 519.007L25.5146 520.138L21.6276 520.138L21.4716 522.556L22.7976 522.556Z" fill="#454C66"/>
<path opacity="0.2" d="M91.1948 503.107L63.8513 503.107C60.0759 503.107 57.0154 506.168 57.0154 509.943L57.0154 537.287C57.0154 541.062 60.0759 544.123 63.8513 544.123L91.1948 544.123C94.9702 544.123 98.0307 541.062 98.0307 537.287L98.0307 509.943C98.0307 506.168 94.9702 503.107 91.1948 503.107Z" fill="#BDBDC2"/>
<path d="M74.2749 519.007L75.3149 519.007L75.3149 528.107L74.1189 528.107L74.1189 520.307L72.1819 520.879L71.8829 519.839L74.2749 519.007ZM79.8317 522.153C80.7417 522.153 81.4914 522.439 82.0807 523.011C82.6701 523.575 82.9647 524.307 82.9647 525.208C82.9647 526.11 82.6701 526.846 82.0807 527.418C81.4914 527.99 80.7417 528.276 79.8317 528.276C78.9131 528.276 78.1591 527.99 77.5697 527.418C76.9891 526.846 76.6987 526.11 76.6987 525.208C76.6987 524.506 76.8807 523.9 77.2447 523.388L80.1697 519.007L81.5477 519.007L79.4027 522.179C79.5934 522.162 79.7364 522.153 79.8317 522.153ZM78.4277 526.599C78.7917 526.946 79.2597 527.119 79.8317 527.119C80.4037 527.119 80.8674 526.946 81.2227 526.599C81.5867 526.244 81.7687 525.78 81.7687 525.208C81.7687 524.636 81.5867 524.177 81.2227 523.83C80.8674 523.484 80.4037 523.31 79.8317 523.31C79.2511 523.31 78.7831 523.484 78.4277 523.83C78.0724 524.177 77.8947 524.636 77.8947 525.208C77.8947 525.78 78.0724 526.244 78.4277 526.599Z" fill="#454C66"/>
<path opacity="0.2" d="M192.21 275.046L164.867 275.046C161.091 275.046 158.031 278.106 158.031 281.882L158.031 309.225C158.031 313.001 161.091 316.061 164.867 316.061L192.21 316.061C195.986 316.061 199.046 313.001 199.046 309.225L199.046 281.882C199.046 278.106 195.986 275.046 192.21 275.046Z" fill="#BDBDC2"/>
<path d="M172.156 300.046L172.156 299.058L175.367 295.782C176.225 294.924 176.654 294.187 176.654 293.572C176.654 293.061 176.498 292.662 176.186 292.376C175.874 292.09 175.493 291.947 175.042 291.947C174.184 291.947 173.56 292.354 173.17 293.169L172.156 292.571C172.442 291.982 172.836 291.535 173.339 291.232C173.85 290.929 174.414 290.777 175.029 290.777C175.792 290.777 176.455 291.028 177.018 291.531C177.581 292.034 177.863 292.71 177.863 293.559C177.863 294.478 177.321 295.479 176.238 296.562L173.911 298.876L178.032 298.876L178.032 300.046L172.156 300.046ZM182.525 294.677C183.218 294.807 183.786 295.106 184.228 295.574C184.67 296.042 184.891 296.636 184.891 297.355C184.891 298.239 184.587 298.937 183.981 299.448C183.374 299.959 182.637 300.215 181.771 300.215C181.077 300.215 180.462 300.059 179.925 299.747C179.387 299.426 179.006 298.967 178.781 298.369L179.795 297.771C180.063 298.612 180.722 299.032 181.771 299.032C182.334 299.032 182.793 298.885 183.149 298.59C183.504 298.295 183.682 297.884 183.682 297.355C183.682 296.826 183.504 296.415 183.149 296.12C182.793 295.817 182.334 295.665 181.771 295.665L181.459 295.665L180.978 294.924L183.084 292.077L179.041 292.077L179.041 290.946L184.501 290.946L184.501 292.012L182.525 294.677Z" fill="#454C66"/>
<path opacity="0.2" d="M249.226 275.046L221.882 275.046C218.107 275.046 215.046 278.106 215.046 281.882L215.046 309.225C215.046 313.001 218.107 316.061 221.882 316.061L249.226 316.061C253.001 316.061 256.061 313.001 256.061 309.225L256.061 281.882C256.061 278.106 253.001 275.046 249.226 275.046Z" fill="#BDBDC2"/>
<path d="M228.93 300.046L228.93 299.058L232.141 295.782C232.999 294.924 233.428 294.187 233.428 293.572C233.428 293.061 233.272 292.662 232.96 292.376C232.648 292.09 232.267 291.947 231.816 291.947C230.958 291.947 230.334 292.354 229.944 293.169L228.93 292.571C229.216 291.982 229.61 291.535 230.113 291.232C230.624 290.929 231.188 290.777 231.803 290.777C232.566 290.777 233.229 291.028 233.792 291.531C234.355 292.034 234.637 292.71 234.637 293.559C234.637 294.478 234.095 295.479 233.012 296.562L230.685 298.876L234.806 298.876L234.806 300.046L228.93 300.046ZM242.356 297.186L242.356 298.317L241.251 298.317L241.251 300.046L240.042 300.046L240.042 298.317L235.401 298.317L235.401 297.186L238.664 290.946L239.964 290.946L236.701 297.186L240.042 297.186L240.042 294.612L241.251 294.612L241.251 297.186L242.356 297.186Z" fill="#454C66"/>
<path opacity="0.2" d="M192.21 332.061L164.867 332.061C161.091 332.061 158.031 335.122 158.031 338.897L158.031 366.24C158.031 370.016 161.091 373.076 164.867 373.076L192.21 373.076C195.986 373.076 199.046 370.016 199.046 366.24L199.046 338.897C199.046 335.122 195.986 332.061 192.21 332.061Z" fill="#BDBDC2"/>
<path d="M172.093 357.061L172.093 356.073L175.304 352.797C176.162 351.939 176.591 351.202 176.591 350.587C176.591 350.076 176.435 349.677 176.123 349.391C175.811 349.105 175.429 348.962 174.979 348.962C174.121 348.962 173.497 349.369 173.107 350.184L172.093 349.586C172.379 348.997 172.773 348.55 173.276 348.247C173.787 347.944 174.35 347.792 174.966 347.792C175.728 347.792 176.391 348.043 176.955 348.546C177.518 349.049 177.8 349.725 177.8 350.574C177.8 351.493 177.258 352.494 176.175 353.577L173.848 355.891L177.969 355.891L177.969 357.061L172.093 357.061ZM181.888 351.51C182.746 351.51 183.47 351.766 184.059 352.277C184.657 352.78 184.956 353.477 184.956 354.37C184.956 355.254 184.653 355.952 184.046 356.463C183.44 356.974 182.703 357.23 181.836 357.23C181.143 357.23 180.523 357.065 179.977 356.736C179.431 356.398 179.05 355.913 178.833 355.28L179.86 354.695C179.982 355.137 180.216 355.475 180.562 355.709C180.909 355.934 181.334 356.047 181.836 356.047C182.408 356.047 182.872 355.9 183.227 355.605C183.583 355.31 183.76 354.899 183.76 354.37C183.76 353.841 183.583 353.43 183.227 353.135C182.872 352.832 182.417 352.68 181.862 352.68L179.288 352.68L179.626 347.961L184.605 347.961L184.605 349.092L180.718 349.092L180.562 351.51L181.888 351.51Z" fill="#454C66"/>
<path opacity="0.2" d="M249.226 332.061L221.882 332.061C218.107 332.061 215.046 335.122 215.046 338.897L215.046 366.24C215.046 370.016 218.107 373.076 221.882 373.076L249.226 373.076C253.001 373.076 256.061 370.016 256.061 366.24L256.061 338.897C256.061 335.122 253.001 332.061 249.226 332.061Z" fill="#BDBDC2"/>
<path d="M229.203 357.061L229.203 356.073L232.414 352.797C233.272 351.939 233.701 351.202 233.701 350.587C233.701 350.076 233.545 349.677 233.233 349.391C232.921 349.105 232.54 348.962 232.089 348.962C231.231 348.962 230.607 349.369 230.217 350.184L229.203 349.586C229.489 348.997 229.883 348.55 230.386 348.247C230.897 347.944 231.461 347.792 232.076 347.792C232.839 347.792 233.502 348.043 234.065 348.546C234.628 349.049 234.91 349.725 234.91 350.574C234.91 351.493 234.368 352.494 233.285 353.577L230.958 355.891L235.079 355.891L235.079 357.061L229.203 357.061ZM238.859 351.107C239.769 351.107 240.519 351.393 241.108 351.965C241.697 352.528 241.992 353.261 241.992 354.162C241.992 355.063 241.697 355.8 241.108 356.372C240.519 356.944 239.769 357.23 238.859 357.23C237.94 357.23 237.186 356.944 236.597 356.372C236.016 355.8 235.726 355.063 235.726 354.162C235.726 353.46 235.908 352.853 236.272 352.342L239.197 347.961L240.575 347.961L238.43 351.133C238.621 351.116 238.764 351.107 238.859 351.107ZM237.455 355.553C237.819 355.9 238.287 356.073 238.859 356.073C239.431 356.073 239.895 355.9 240.25 355.553C240.614 355.198 240.796 354.734 240.796 354.162C240.796 353.59 240.614 353.131 240.25 352.784C239.895 352.437 239.431 352.264 238.859 352.264C238.278 352.264 237.81 352.437 237.455 352.784C237.1 353.131 236.922 353.59 236.922 354.162C236.922 354.734 237.1 355.198 237.455 355.553Z" fill="#454C66"/>
<path opacity="0.2" d="M192.21 389.077L164.867 389.077C161.091 389.077 158.031 392.137 158.031 395.913L158.031 423.256C158.031 427.031 161.091 430.092 164.867 430.092L192.21 430.092C195.986 430.092 199.046 427.031 199.046 423.256L199.046 395.913C199.046 392.137 195.986 389.077 192.21 389.077Z" fill="#BDBDC2"/>
<path d="M172.511 414.077L172.511 413.089L175.722 409.813C176.58 408.955 177.009 408.218 177.009 407.603C177.009 407.091 176.853 406.693 176.541 406.407C176.229 406.121 175.848 405.978 175.397 405.978C174.539 405.978 173.915 406.385 173.525 407.2L172.511 406.602C172.797 406.012 173.192 405.566 173.694 405.263C174.206 404.959 174.769 404.808 175.384 404.808C176.147 404.808 176.81 405.059 177.373 405.562C177.937 406.064 178.218 406.74 178.218 407.59C178.218 408.508 177.677 409.509 176.593 410.593L174.266 412.907L178.387 412.907L178.387 414.077L172.511 414.077ZM178.879 404.977L184.56 404.977L184.56 406.056L181.245 414.077L179.984 414.077L183.273 406.121L178.879 406.121L178.879 404.977Z" fill="#454C66"/>
<path opacity="0.2" d="M249.226 389.077L221.882 389.077C218.107 389.077 215.046 392.137 215.046 395.913L215.046 423.256C215.046 427.031 218.107 430.092 221.882 430.092L249.226 430.092C253.001 430.092 256.061 427.031 256.061 423.256L256.061 395.913C256.061 392.137 253.001 389.077 249.226 389.077Z" fill="#BDBDC2"/>
<path d="M229.013 414.077L229.013 413.089L232.224 409.813C233.082 408.955 233.511 408.218 233.511 407.603C233.511 407.091 233.355 406.693 233.043 406.407C232.731 406.121 232.349 405.978 231.899 405.978C231.041 405.978 230.417 406.385 230.027 407.2L229.013 406.602C229.299 406.012 229.693 405.566 230.196 405.263C230.707 404.959 231.27 404.808 231.886 404.808C232.648 404.808 233.311 405.059 233.875 405.562C234.438 406.064 234.72 406.74 234.72 407.59C234.72 408.508 234.178 409.509 233.095 410.593L230.768 412.907L234.889 412.907L234.889 414.077L229.013 414.077ZM240.641 409.371C241.083 409.596 241.429 409.899 241.681 410.281C241.932 410.662 242.058 411.095 242.058 411.581C242.058 412.413 241.767 413.067 241.187 413.544C240.606 414.012 239.856 414.246 238.938 414.246C238.028 414.246 237.282 414.012 236.702 413.544C236.121 413.067 235.831 412.413 235.831 411.581C235.831 411.095 235.956 410.662 236.208 410.281C236.459 409.899 236.806 409.596 237.248 409.371C236.502 408.903 236.13 408.24 236.13 407.382C236.13 406.558 236.403 405.926 236.949 405.484C237.503 405.033 238.166 404.808 238.938 404.808C239.718 404.808 240.381 405.033 240.927 405.484C241.481 405.926 241.759 406.558 241.759 407.382C241.759 408.24 241.386 408.903 240.641 409.371ZM238.938 405.965C238.478 405.965 238.093 406.086 237.781 406.329C237.477 406.571 237.326 406.931 237.326 407.408C237.326 407.867 237.482 408.227 237.794 408.487C238.106 408.738 238.487 408.864 238.938 408.864C239.388 408.864 239.77 408.738 240.082 408.487C240.394 408.227 240.55 407.867 240.55 407.408C240.55 406.931 240.398 406.571 240.095 406.329C239.791 406.086 239.406 405.965 238.938 405.965ZM238.938 413.089C239.518 413.089 239.982 412.954 240.329 412.686C240.684 412.408 240.862 412.014 240.862 411.503C240.862 411 240.684 410.614 240.329 410.346C239.982 410.068 239.518 409.93 238.938 409.93C238.366 409.93 237.902 410.068 237.547 410.346C237.2 410.614 237.027 411 237.027 411.503C237.027 412.014 237.2 412.408 237.547 412.686C237.902 412.954 238.366 413.089 238.938 413.089Z" fill="#454C66"/>
<path opacity="0.2" d="M192.21 446.092L164.867 446.092C161.091 446.092 158.031 449.152 158.031 452.928L158.031 480.271C158.031 484.047 161.091 487.107 164.867 487.107L192.21 487.107C195.986 487.107 199.046 484.047 199.046 480.271L199.046 452.928C199.046 449.152 195.986 446.092 192.21 446.092Z" fill="#BDBDC2"/>
<path d="M172.093 471.092L172.093 470.104L175.304 466.828C176.162 465.97 176.591 465.233 176.591 464.618C176.591 464.106 176.435 463.708 176.123 463.422C175.811 463.136 175.429 462.993 174.979 462.993C174.121 462.993 173.497 463.4 173.107 464.215L172.093 463.617C172.379 463.027 172.773 462.581 173.276 462.278C173.787 461.974 174.35 461.823 174.966 461.823C175.728 461.823 176.391 462.074 176.955 462.577C177.518 463.079 177.8 463.755 177.8 464.605C177.8 465.523 177.258 466.524 176.175 467.608L173.848 469.922L177.969 469.922L177.969 471.092L172.093 471.092ZM185.072 464.878C185.072 465.58 184.886 466.191 184.513 466.711L184.526 466.711L181.588 471.092L180.223 471.092L182.381 467.907C182.19 467.924 182.043 467.933 181.939 467.933C181.02 467.933 180.266 467.651 179.677 467.088C179.096 466.516 178.806 465.779 178.806 464.878C178.806 463.976 179.096 463.244 179.677 462.681C180.266 462.109 181.02 461.823 181.939 461.823C182.858 461.823 183.607 462.109 184.188 462.681C184.777 463.244 185.072 463.976 185.072 464.878ZM180.535 463.5C180.18 463.846 180.002 464.306 180.002 464.878C180.002 465.45 180.18 465.913 180.535 466.269C180.899 466.615 181.367 466.789 181.939 466.789C182.511 466.789 182.975 466.615 183.33 466.269C183.694 465.913 183.876 465.45 183.876 464.878C183.876 464.306 183.698 463.846 183.343 463.5C182.988 463.153 182.52 462.98 181.939 462.98C181.367 462.98 180.899 463.153 180.535 463.5Z" fill="#454C66"/>
<path opacity="0.2" d="M249.226 446.092L221.882 446.092C218.107 446.092 215.046 449.152 215.046 452.928L215.046 480.271C215.046 484.047 218.107 487.107 221.882 487.107L249.226 487.107C253.001 487.107 256.061 484.047 256.061 480.271L256.061 452.928C256.061 449.152 253.001 446.092 249.226 446.092Z" fill="#BDBDC2"/>
<path d="M232.081 465.723C232.775 465.853 233.342 466.152 233.784 466.62C234.226 467.088 234.447 467.681 234.447 468.401C234.447 469.285 234.144 469.982 233.537 470.494C232.931 471.005 232.194 471.261 231.327 471.261C230.634 471.261 230.019 471.105 229.481 470.793C228.944 470.472 228.563 470.013 228.337 469.415L229.351 468.817C229.62 469.657 230.279 470.078 231.327 470.078C231.891 470.078 232.35 469.93 232.705 469.636C233.061 469.341 233.238 468.929 233.238 468.401C233.238 467.872 233.061 467.46 232.705 467.166C232.35 466.862 231.891 466.711 231.327 466.711L231.015 466.711L230.534 465.97L232.64 463.123L228.597 463.123L228.597 461.992L234.057 461.992L234.057 463.058L232.081 465.723ZM241.612 469.974C240.997 470.832 240.135 471.261 239.025 471.261C237.916 471.261 237.054 470.832 236.438 469.974C235.823 469.116 235.515 467.972 235.515 466.542C235.515 465.112 235.823 463.968 236.438 463.11C237.054 462.252 237.916 461.823 239.025 461.823C240.135 461.823 240.997 462.252 241.612 463.11C242.228 463.968 242.535 465.112 242.535 466.542C242.535 467.972 242.228 469.116 241.612 469.974ZM237.322 469.155C237.721 469.77 238.289 470.078 239.025 470.078C239.762 470.078 240.33 469.77 240.728 469.155C241.136 468.539 241.339 467.668 241.339 466.542C241.339 465.415 241.136 464.544 240.728 463.929C240.33 463.305 239.762 462.993 239.025 462.993C238.289 462.993 237.721 463.3 237.322 463.916C236.924 464.531 236.724 465.406 236.724 466.542C236.724 467.668 236.924 468.539 237.322 469.155Z" fill="#454C66"/>
<path opacity="0.2" d="M192.21 503.107L164.867 503.107C161.091 503.107 158.031 506.168 158.031 509.943L158.031 537.287C158.031 541.062 161.091 544.123 164.867 544.123L192.21 544.123C195.986 544.123 199.046 541.062 199.046 537.287L199.046 509.943C199.046 506.168 195.986 503.107 192.21 503.107Z" fill="#BDBDC2"/>
<path d="M176.926 522.738C177.619 522.868 178.187 523.167 178.629 523.635C179.071 524.103 179.292 524.697 179.292 525.416C179.292 526.3 178.989 526.998 178.382 527.509C177.775 528.021 177.039 528.276 176.172 528.276C175.479 528.276 174.863 528.12 174.326 527.808C173.789 527.488 173.407 527.028 173.182 526.43L174.196 525.832C174.465 526.673 175.123 527.093 176.172 527.093C176.735 527.093 177.195 526.946 177.55 526.651C177.905 526.357 178.083 525.945 178.083 525.416C178.083 524.888 177.905 524.476 177.55 524.181C177.195 523.878 176.735 523.726 176.172 523.726L175.86 523.726L175.379 522.985L177.485 520.138L173.442 520.138L173.442 519.007L178.902 519.007L178.902 520.073L176.926 522.738ZM182.184 519.007L183.224 519.007L183.224 528.107L182.028 528.107L182.028 520.307L180.091 520.879L179.792 519.839L182.184 519.007Z" fill="#454C66"/>
<path opacity="0.2" d="M249.226 503.107L221.882 503.107C218.107 503.107 215.046 506.168 215.046 509.943L215.046 537.287C215.046 541.062 218.107 544.123 221.882 544.123L249.226 544.123C253.001 544.123 256.061 541.062 256.061 537.287L256.061 509.943C256.061 506.168 253.001 503.107 249.226 503.107Z" fill="#BDBDC2"/>
<path d="M230.301 528.107L230.301 527.119L233.512 523.843C234.37 522.985 234.799 522.249 234.799 521.633C234.799 521.122 234.643 520.723 234.331 520.437C234.019 520.151 233.638 520.008 233.187 520.008C232.329 520.008 231.705 520.416 231.315 521.23L230.301 520.632C230.587 520.043 230.982 519.597 231.484 519.293C231.996 518.99 232.559 518.838 233.174 518.838C233.937 518.838 234.6 519.09 235.163 519.592C235.727 520.095 236.008 520.771 236.008 521.62C236.008 522.539 235.467 523.54 234.383 524.623L232.056 526.937L236.177 526.937L236.177 528.107L230.301 528.107ZM239.199 519.007L240.239 519.007L240.239 528.107L239.043 528.107L239.043 520.307L237.106 520.879L236.807 519.839L239.199 519.007Z" fill="#454C66"/>
<path opacity="0.2" d="M34.1794 624.123L6.83589 624.123C3.06053 624.123 -1.3378e-07 627.183 -2.98806e-07 630.958L-1.49403e-06 658.302C-1.65906e-06 662.077 3.06053 665.138 6.83589 665.138L34.1794 665.138C37.9548 665.138 41.0153 662.077 41.0153 658.302L41.0153 630.958C41.0153 627.183 37.9548 624.123 34.1794 624.123Z" fill="#BDBDC2"/>
<path d="M17.5475 640.023L23.2285 640.023L23.2285 641.102L19.9135 649.123L18.6525 649.123L21.9415 641.167L17.5475 641.167L17.5475 640.023Z" fill="#454C66"/>
<path opacity="0.2" d="M91.1948 624.123L63.8513 624.123C60.0759 624.123 57.0154 627.183 57.0154 630.958L57.0154 658.302C57.0154 662.077 60.0759 665.138 63.8513 665.138L91.1948 665.138C94.9702 665.138 98.0307 662.077 98.0307 658.302L98.0307 630.958C98.0307 627.183 94.9702 624.123 91.1948 624.123Z" fill="#BDBDC2"/>
<path d="M79.2139 644.417C79.6559 644.642 80.0026 644.945 80.2539 645.327C80.5052 645.708 80.6309 646.141 80.6309 646.627C80.6309 647.459 80.3406 648.113 79.7599 648.59C79.1792 649.058 78.4296 649.292 77.5109 649.292C76.6009 649.292 75.8556 649.058 75.2749 648.59C74.6942 648.113 74.4039 647.459 74.4039 646.627C74.4039 646.141 74.5296 645.708 74.7809 645.327C75.0322 644.945 75.3789 644.642 75.8209 644.417C75.0756 643.949 74.7029 643.286 74.7029 642.428C74.7029 641.604 74.9759 640.972 75.5219 640.53C76.0766 640.079 76.7396 639.854 77.5109 639.854C78.2909 639.854 78.9539 640.079 79.4999 640.53C80.0546 640.972 80.3319 641.604 80.3319 642.428C80.3319 643.286 79.9592 643.949 79.2139 644.417ZM77.5109 641.011C77.0516 641.011 76.6659 641.132 76.3539 641.375C76.0506 641.617 75.8989 641.977 75.8989 642.454C75.8989 642.913 76.0549 643.273 76.3669 643.533C76.6789 643.784 77.0602 643.91 77.5109 643.91C77.9616 643.91 78.3429 643.784 78.6549 643.533C78.9669 643.273 79.1229 642.913 79.1229 642.454C79.1229 641.977 78.9712 641.617 78.6679 641.375C78.3646 641.132 77.9789 641.011 77.5109 641.011ZM77.5109 648.135C78.0916 648.135 78.5552 648 78.9019 647.732C79.2572 647.454 79.4349 647.06 79.4349 646.549C79.4349 646.046 79.2572 645.66 78.9019 645.392C78.5552 645.114 78.0916 644.976 77.5109 644.976C76.9389 644.976 76.4752 645.114 76.1199 645.392C75.7732 645.66 75.5999 646.046 75.5999 646.549C75.5999 647.06 75.7732 647.454 76.1199 647.732C76.4752 648 76.9389 648.135 77.5109 648.135Z" fill="#454C66"/>
<path opacity="0.2" d="M34.1794 681.138L6.83589 681.138C3.06053 681.138 -1.3378e-07 684.198 -2.98806e-07 687.974L-1.49403e-06 715.317C-1.65906e-06 719.092 3.06053 722.153 6.83589 722.153L34.1794 722.153C37.9548 722.153 41.0153 719.092 41.0153 715.317L41.0153 687.974C41.0153 684.198 37.9548 681.138 34.1794 681.138Z" fill="#BDBDC2"/>
<path d="M23.6324 699.924C23.6324 700.626 23.4461 701.237 23.0734 701.757L23.0864 701.757L20.1484 706.138L18.7834 706.138L20.9414 702.953C20.7508 702.97 20.6034 702.979 20.4994 702.979C19.5808 702.979 18.8268 702.697 18.2374 702.134C17.6568 701.562 17.3664 700.825 17.3664 699.924C17.3664 699.022 17.6568 698.29 18.2374 697.727C18.8268 697.155 19.5808 696.869 20.4994 696.869C21.4181 696.869 22.1678 697.155 22.7484 697.727C23.3378 698.29 23.6324 699.022 23.6324 699.924ZM19.0954 698.546C18.7401 698.892 18.5624 699.352 18.5624 699.924C18.5624 700.496 18.7401 700.959 19.0954 701.315C19.4594 701.661 19.9274 701.835 20.4994 701.835C21.0714 701.835 21.5351 701.661 21.8904 701.315C22.2544 700.959 22.4364 700.496 22.4364 699.924C22.4364 699.352 22.2588 698.892 21.9034 698.546C21.5481 698.199 21.0801 698.026 20.4994 698.026C19.9274 698.026 19.4594 698.199 19.0954 698.546Z" fill="#454C66"/>
<path opacity="0.2" d="M91.1948 681.138L63.8513 681.138C60.0759 681.138 57.0154 684.198 57.0154 687.974L57.0154 715.317C57.0154 719.092 60.0759 722.153 63.8513 722.153L91.1948 722.153C94.9702 722.153 98.0307 719.092 98.0307 715.317L98.0307 687.974C98.0307 684.198 94.9702 681.138 91.1948 681.138Z" fill="#BDBDC2"/>
<path d="M80.6478 699.924C80.6478 700.626 80.4615 701.237 80.0888 701.757L80.1018 701.757L77.1638 706.138L75.7988 706.138L77.9568 702.953C77.7662 702.97 77.6188 702.979 77.5148 702.979C76.5962 702.979 75.8422 702.697 75.2528 702.134C74.6722 701.562 74.3818 700.825 74.3818 699.924C74.3818 699.022 74.6722 698.29 75.2528 697.727C75.8422 697.155 76.5962 696.869 77.5148 696.869C78.4335 696.869 79.1832 697.155 79.7638 697.727C80.3532 698.29 80.6478 699.022 80.6478 699.924ZM76.1108 698.546C75.7555 698.892 75.5778 699.352 75.5778 699.924C75.5778 700.496 75.7555 700.959 76.1108 701.315C76.4748 701.661 76.9428 701.835 77.5148 701.835C78.0868 701.835 78.5505 701.661 78.9058 701.315C79.2698 700.959 79.4518 700.496 79.4518 699.924C79.4518 699.352 79.2742 698.892 78.9188 698.546C78.5635 698.199 78.0955 698.026 77.5148 698.026C76.9428 698.026 76.4748 698.199 76.1108 698.546Z" fill="#454C66"/>
<path opacity="0.2" d="M34.1794 738.153L6.83589 738.153C3.06053 738.153 -1.3378e-07 741.214 -2.98806e-07 744.989L-1.49403e-06 772.333C-1.65906e-06 776.108 3.06053 779.169 6.83589 779.169L34.1794 779.169C37.9548 779.169 41.0153 776.108 41.0153 772.333L41.0153 744.989C41.0153 741.214 37.9548 738.153 34.1794 738.153Z" fill="#BDBDC2"/>
<path d="M18.4402 754.053L19.4802 754.053L19.4802 763.153L18.2842 763.153L18.2842 755.353L16.3472 755.925L16.0482 754.885L18.4402 754.053ZM23.074 754.053L24.114 754.053L24.114 763.153L22.918 763.153L22.918 755.353L20.981 755.925L20.682 754.885L23.074 754.053Z" fill="#454C66"/>
<path opacity="0.2" d="M91.1948 738.153L63.8513 738.153C60.0759 738.153 57.0154 741.214 57.0154 744.989L57.0154 772.333C57.0154 776.108 60.0759 779.169 63.8513 779.169L91.1948 779.169C94.9702 779.169 98.0307 776.108 98.0307 772.333L98.0307 744.989C98.0307 741.214 94.9702 738.153 91.1948 738.153Z" fill="#BDBDC2"/>
<path d="M73.8448 754.053L74.8848 754.053L74.8848 763.153L73.6888 763.153L73.6888 755.353L71.7518 755.925L71.4528 754.885L73.8448 754.053ZM76.3725 763.153L76.3725 762.165L79.5835 758.889C80.4415 758.031 80.8705 757.295 80.8705 756.679C80.8705 756.168 80.7145 755.769 80.4025 755.483C80.0905 755.197 79.7092 755.054 79.2585 755.054C78.4005 755.054 77.7765 755.462 77.3865 756.276L76.3725 755.678C76.6585 755.089 77.0529 754.643 77.5555 754.339C78.0669 754.036 78.6302 753.884 79.2455 753.884C80.0082 753.884 80.6712 754.136 81.2345 754.638C81.7979 755.141 82.0795 755.817 82.0795 756.666C82.0795 757.585 81.5379 758.586 80.4545 759.669L78.1275 761.983L82.2485 761.983L82.2485 763.153L76.3725 763.153Z" fill="#454C66"/>
<path opacity="0.2" d="M34.1794 795.168L6.83589 795.168C3.06053 795.168 -1.3378e-07 798.229 -2.98806e-07 802.004L-1.49403e-06 829.348C-1.65906e-06 833.123 3.06053 836.184 6.83589 836.184L34.1794 836.184C37.9548 836.184 41.0153 833.123 41.0153 829.348L41.0153 802.004C41.0153 798.229 37.9548 795.168 34.1794 795.168Z" fill="#BDBDC2"/>
<path d="M17.2786 811.068L18.3186 811.068L18.3186 820.168L17.1226 820.168L17.1226 812.368L15.1856 812.94L14.8866 811.9L17.2786 811.068ZM23.4464 814.799C24.1397 814.929 24.7074 815.228 25.1494 815.696C25.5914 816.164 25.8124 816.758 25.8124 817.477C25.8124 818.361 25.509 819.059 24.9024 819.57C24.2957 820.082 23.559 820.337 22.6924 820.337C21.999 820.337 21.3837 820.181 20.8464 819.869C20.309 819.549 19.9277 819.089 19.7024 818.491L20.7164 817.893C20.985 818.734 21.6437 819.154 22.6924 819.154C23.2557 819.154 23.715 819.007 24.0704 818.712C24.4257 818.418 24.6034 818.006 24.6034 817.477C24.6034 816.949 24.4257 816.537 24.0704 816.242C23.715 815.939 23.2557 815.787 22.6924 815.787L22.3804 815.787L21.8994 815.046L24.0054 812.199L19.9624 812.199L19.9624 811.068L25.4224 811.068L25.4224 812.134L23.4464 814.799Z" fill="#454C66"/>
<path opacity="0.2" d="M91.1948 795.168L63.8513 795.168C60.0759 795.168 57.0154 798.229 57.0154 802.004L57.0154 829.348C57.0154 833.123 60.0759 836.184 63.8513 836.184L91.1948 836.184C94.9702 836.184 98.0307 833.123 98.0307 829.348L98.0307 802.004C98.0307 798.229 94.9702 795.168 91.1948 795.168Z" fill="#BDBDC2"/>
<path d="M74.002 811.068L75.042 811.068L75.042 820.168L73.846 820.168L73.846 812.368L71.909 812.94L71.61 811.9L74.002 811.068ZM83.3288 817.308L83.3288 818.439L82.2238 818.439L82.2238 820.168L81.0148 820.168L81.0148 818.439L76.3738 818.439L76.3738 817.308L79.6368 811.068L80.9368 811.068L77.6738 817.308L81.0148 817.308L81.0148 814.734L82.2238 814.734L82.2238 817.308L83.3288 817.308Z" fill="#454C66"/>
<path opacity="0.2" d="M34.1794 852.184L6.83589 852.184C3.06053 852.184 -1.3378e-07 855.245 -2.98806e-07 859.02L-1.49403e-06 886.364C-1.65906e-06 890.139 3.06053 893.199 6.83589 893.199L34.1794 893.199C37.9548 893.199 41.0153 890.139 41.0153 886.364L41.0153 859.02C41.0153 855.245 37.9548 852.184 34.1794 852.184Z" fill="#BDBDC2"/>
<path d="M17.2278 868.084L18.2678 868.084L18.2678 877.184L17.0718 877.184L17.0718 869.384L15.1348 869.956L14.8358 868.916L17.2278 868.084ZM22.7976 871.633C23.6556 871.633 24.3793 871.889 24.9686 872.4C25.5666 872.903 25.8656 873.6 25.8656 874.493C25.8656 875.377 25.5623 876.075 24.9556 876.586C24.3489 877.097 23.6123 877.353 22.7456 877.353C22.0523 877.353 21.4326 877.188 20.8866 876.859C20.3406 876.521 19.9593 876.036 19.7426 875.403L20.7696 874.818C20.8909 875.26 21.1249 875.598 21.4716 875.832C21.8183 876.057 22.2429 876.17 22.7456 876.17C23.3176 876.17 23.7813 876.023 24.1366 875.728C24.4919 875.433 24.6696 875.022 24.6696 874.493C24.6696 873.964 24.4919 873.553 24.1366 873.258C23.7813 872.955 23.3263 872.803 22.7716 872.803L20.1976 872.803L20.5356 868.084L25.5146 868.084L25.5146 869.215L21.6276 869.215L21.4716 871.633L22.7976 871.633Z" fill="#454C66"/>
<path opacity="0.2" d="M91.1948 852.184L63.8513 852.184C60.0759 852.184 57.0154 855.245 57.0154 859.02L57.0154 886.364C57.0154 890.139 60.0759 893.199 63.8513 893.199L91.1948 893.199C94.9702 893.199 98.0307 890.139 98.0307 886.364L98.0307 859.02C98.0307 855.245 94.9702 852.184 91.1948 852.184Z" fill="#BDBDC2"/>
<path d="M74.2749 868.084L75.3149 868.084L75.3149 877.184L74.1189 877.184L74.1189 869.384L72.1819 869.956L71.8829 868.916L74.2749 868.084ZM79.8317 871.23C80.7417 871.23 81.4914 871.516 82.0807 872.088C82.6701 872.651 82.9647 873.384 82.9647 874.285C82.9647 875.186 82.6701 875.923 82.0807 876.495C81.4914 877.067 80.7417 877.353 79.8317 877.353C78.9131 877.353 78.1591 877.067 77.5697 876.495C76.9891 875.923 76.6987 875.186 76.6987 874.285C76.6987 873.583 76.8807 872.976 77.2447 872.465L80.1697 868.084L81.5477 868.084L79.4027 871.256C79.5934 871.239 79.7364 871.23 79.8317 871.23ZM78.4277 875.676C78.7917 876.023 79.2597 876.196 79.8317 876.196C80.4037 876.196 80.8674 876.023 81.2227 875.676C81.5867 875.321 81.7687 874.857 81.7687 874.285C81.7687 873.713 81.5867 873.254 81.2227 872.907C80.8674 872.56 80.4037 872.387 79.8317 872.387C79.2511 872.387 78.7831 872.56 78.4277 872.907C78.0724 873.254 77.8947 873.713 77.8947 874.285C77.8947 874.857 78.0724 875.321 78.4277 875.676Z" fill="#454C66"/>
<path opacity="0.2" d="M192.21 624.123L164.867 624.123C161.091 624.123 158.031 627.183 158.031 630.958L158.031 658.302C158.031 662.077 161.091 665.138 164.867 665.138L192.21 665.138C195.986 665.138 199.046 662.077 199.046 658.302L199.046 630.958C199.046 627.183 195.986 624.123 192.21 624.123Z" fill="#BDBDC2"/>
<path d="M172.156 649.123L172.156 648.135L175.367 644.859C176.225 644.001 176.654 643.264 176.654 642.649C176.654 642.137 176.498 641.739 176.186 641.453C175.874 641.167 175.493 641.024 175.042 641.024C174.184 641.024 173.56 641.431 173.17 642.246L172.156 641.648C172.442 641.058 172.836 640.612 173.339 640.309C173.85 640.005 174.414 639.854 175.029 639.854C175.792 639.854 176.455 640.105 177.018 640.608C177.581 641.11 177.863 641.786 177.863 642.636C177.863 643.554 177.321 644.555 176.238 645.639L173.911 647.953L178.032 647.953L178.032 649.123L172.156 649.123ZM182.525 643.754C183.218 643.884 183.786 644.183 184.228 644.651C184.67 645.119 184.891 645.712 184.891 646.432C184.891 647.316 184.587 648.013 183.981 648.525C183.374 649.036 182.637 649.292 181.771 649.292C181.077 649.292 180.462 649.136 179.925 648.824C179.387 648.503 179.006 648.044 178.781 647.446L179.795 646.848C180.063 647.688 180.722 648.109 181.771 648.109C182.334 648.109 182.793 647.961 183.149 647.667C183.504 647.372 183.682 646.96 183.682 646.432C183.682 645.903 183.504 645.491 183.149 645.197C182.793 644.893 182.334 644.742 181.771 644.742L181.459 644.742L180.978 644.001L183.084 641.154L179.041 641.154L179.041 640.023L184.501 640.023L184.501 641.089L182.525 643.754Z" fill="#454C66"/>
<path opacity="0.2" d="M249.226 624.123L221.882 624.123C218.107 624.123 215.046 627.183 215.046 630.958L215.046 658.302C215.046 662.077 218.107 665.138 221.882 665.138L249.226 665.138C253.001 665.138 256.061 662.077 256.061 658.302L256.061 630.958C256.061 627.183 253.001 624.123 249.226 624.123Z" fill="#BDBDC2"/>
<path d="M228.93 649.123L228.93 648.135L232.141 644.859C232.999 644.001 233.428 643.264 233.428 642.649C233.428 642.137 233.272 641.739 232.96 641.453C232.648 641.167 232.267 641.024 231.816 641.024C230.958 641.024 230.334 641.431 229.944 642.246L228.93 641.648C229.216 641.058 229.61 640.612 230.113 640.309C230.624 640.005 231.188 639.854 231.803 639.854C232.566 639.854 233.229 640.105 233.792 640.608C234.355 641.11 234.637 641.786 234.637 642.636C234.637 643.554 234.095 644.555 233.012 645.639L230.685 647.953L234.806 647.953L234.806 649.123L228.93 649.123ZM242.356 646.263L242.356 647.394L241.251 647.394L241.251 649.123L240.042 649.123L240.042 647.394L235.401 647.394L235.401 646.263L238.664 640.023L239.964 640.023L236.701 646.263L240.042 646.263L240.042 643.689L241.251 643.689L241.251 646.263L242.356 646.263Z" fill="#454C66"/>
<path opacity="0.2" d="M192.21 681.138L164.867 681.138C161.091 681.138 158.031 684.198 158.031 687.974L158.031 715.317C158.031 719.092 161.091 722.153 164.867 722.153L192.21 722.153C195.986 722.153 199.046 719.092 199.046 715.317L199.046 687.974C199.046 684.198 195.986 681.138 192.21 681.138Z" fill="#BDBDC2"/>
<path d="M172.093 706.138L172.093 705.15L175.304 701.874C176.162 701.016 176.591 700.279 176.591 699.664C176.591 699.152 176.435 698.754 176.123 698.468C175.811 698.182 175.429 698.039 174.979 698.039C174.121 698.039 173.497 698.446 173.107 699.261L172.093 698.663C172.379 698.073 172.773 697.627 173.276 697.324C173.787 697.02 174.35 696.869 174.966 696.869C175.728 696.869 176.391 697.12 176.955 697.623C177.518 698.125 177.8 698.801 177.8 699.651C177.8 700.569 177.258 701.57 176.175 702.654L173.848 704.968L177.969 704.968L177.969 706.138L172.093 706.138ZM181.888 700.587C182.746 700.587 183.47 700.842 184.059 701.354C184.657 701.856 184.956 702.554 184.956 703.447C184.956 704.331 184.653 705.028 184.046 705.54C183.44 706.051 182.703 706.307 181.836 706.307C181.143 706.307 180.523 706.142 179.977 705.813C179.431 705.475 179.05 704.989 178.833 704.357L179.86 703.772C179.982 704.214 180.216 704.552 180.562 704.786C180.909 705.011 181.334 705.124 181.836 705.124C182.408 705.124 182.872 704.976 183.227 704.682C183.583 704.387 183.76 703.975 183.76 703.447C183.76 702.918 183.583 702.506 183.227 702.212C182.872 701.908 182.417 701.757 181.862 701.757L179.288 701.757L179.626 697.038L184.605 697.038L184.605 698.169L180.718 698.169L180.562 700.587L181.888 700.587Z" fill="#454C66"/>
<path opacity="0.2" d="M249.226 681.138L221.882 681.138C218.107 681.138 215.046 684.198 215.046 687.974L215.046 715.317C215.046 719.092 218.107 722.153 221.882 722.153L249.226 722.153C253.001 722.153 256.061 719.092 256.061 715.317L256.061 687.974C256.061 684.198 253.001 681.138 249.226 681.138Z" fill="#BDBDC2"/>
<path d="M229.203 706.138L229.203 705.15L232.414 701.874C233.272 701.016 233.701 700.279 233.701 699.664C233.701 699.152 233.545 698.754 233.233 698.468C232.921 698.182 232.54 698.039 232.089 698.039C231.231 698.039 230.607 698.446 230.217 699.261L229.203 698.663C229.489 698.073 229.883 697.627 230.386 697.324C230.897 697.02 231.461 696.869 232.076 696.869C232.839 696.869 233.502 697.12 234.065 697.623C234.628 698.125 234.91 698.801 234.91 699.651C234.91 700.569 234.368 701.57 233.285 702.654L230.958 704.968L235.079 704.968L235.079 706.138L229.203 706.138ZM238.859 700.184C239.769 700.184 240.519 700.47 241.108 701.042C241.697 701.605 241.992 702.337 241.992 703.239C241.992 704.14 241.697 704.877 241.108 705.449C240.519 706.021 239.769 706.307 238.859 706.307C237.94 706.307 237.186 706.021 236.597 705.449C236.016 704.877 235.726 704.14 235.726 703.239C235.726 702.537 235.908 701.93 236.272 701.419L239.197 697.038L240.575 697.038L238.43 700.21C238.621 700.192 238.764 700.184 238.859 700.184ZM237.455 704.63C237.819 704.976 238.287 705.15 238.859 705.15C239.431 705.15 239.895 704.976 240.25 704.63C240.614 704.274 240.796 703.811 240.796 703.239C240.796 702.667 240.614 702.207 240.25 701.861C239.895 701.514 239.431 701.341 238.859 701.341C238.278 701.341 237.81 701.514 237.455 701.861C237.1 702.207 236.922 702.667 236.922 703.239C236.922 703.811 237.1 704.274 237.455 704.63Z" fill="#454C66"/>
<path opacity="0.2" d="M192.21 738.153L164.867 738.153C161.091 738.153 158.031 741.214 158.031 744.989L158.031 772.333C158.031 776.108 161.091 779.169 164.867 779.169L192.21 779.169C195.986 779.169 199.046 776.108 199.046 772.333L199.046 744.989C199.046 741.214 195.986 738.153 192.21 738.153Z" fill="#BDBDC2"/>
<path d="M172.511 763.153L172.511 762.165L175.722 758.889C176.58 758.031 177.009 757.295 177.009 756.679C177.009 756.168 176.853 755.769 176.541 755.483C176.229 755.197 175.848 755.054 175.397 755.054C174.539 755.054 173.915 755.462 173.525 756.276L172.511 755.678C172.797 755.089 173.192 754.643 173.694 754.339C174.206 754.036 174.769 753.884 175.384 753.884C176.147 753.884 176.81 754.136 177.373 754.638C177.937 755.141 178.218 755.817 178.218 756.666C178.218 757.585 177.677 758.586 176.593 759.669L174.266 761.983L178.387 761.983L178.387 763.153L172.511 763.153ZM178.879 754.053L184.56 754.053L184.56 755.132L181.245 763.153L179.984 763.153L183.273 755.197L178.879 755.197L178.879 754.053Z" fill="#454C66"/>
<path opacity="0.2" d="M249.226 738.153L221.882 738.153C218.107 738.153 215.046 741.214 215.046 744.989L215.046 772.333C215.046 776.108 218.107 779.169 221.882 779.169L249.226 779.169C253.001 779.169 256.061 776.108 256.061 772.333L256.061 744.989C256.061 741.214 253.001 738.153 249.226 738.153Z" fill="#BDBDC2"/>
<path d="M229.013 763.153L229.013 762.165L232.224 758.889C233.082 758.031 233.511 757.295 233.511 756.679C233.511 756.168 233.355 755.769 233.043 755.483C232.731 755.197 232.349 755.054 231.899 755.054C231.041 755.054 230.417 755.462 230.027 756.276L229.013 755.678C229.299 755.089 229.693 754.643 230.196 754.339C230.707 754.036 231.27 753.884 231.886 753.884C232.648 753.884 233.311 754.136 233.875 754.638C234.438 755.141 234.72 755.817 234.72 756.666C234.72 757.585 234.178 758.586 233.095 759.669L230.768 761.983L234.889 761.983L234.889 763.153L229.013 763.153ZM240.641 758.447C241.083 758.673 241.429 758.976 241.681 759.357C241.932 759.739 242.058 760.172 242.058 760.657C242.058 761.489 241.767 762.144 241.187 762.62C240.606 763.088 239.856 763.322 238.938 763.322C238.028 763.322 237.282 763.088 236.702 762.62C236.121 762.144 235.831 761.489 235.831 760.657C235.831 760.172 235.956 759.739 236.208 759.357C236.459 758.976 236.806 758.673 237.248 758.447C236.502 757.979 236.13 757.316 236.13 756.458C236.13 755.635 236.403 755.002 236.949 754.56C237.503 754.11 238.166 753.884 238.938 753.884C239.718 753.884 240.381 754.11 240.927 754.56C241.481 755.002 241.759 755.635 241.759 756.458C241.759 757.316 241.386 757.979 240.641 758.447ZM238.938 755.041C238.478 755.041 238.093 755.163 237.781 755.405C237.477 755.648 237.326 756.008 237.326 756.484C237.326 756.944 237.482 757.303 237.794 757.563C238.106 757.815 238.487 757.94 238.938 757.94C239.388 757.94 239.77 757.815 240.082 757.563C240.394 757.303 240.55 756.944 240.55 756.484C240.55 756.008 240.398 755.648 240.095 755.405C239.791 755.163 239.406 755.041 238.938 755.041ZM238.938 762.165C239.518 762.165 239.982 762.031 240.329 761.762C240.684 761.485 240.862 761.091 240.862 760.579C240.862 760.077 240.684 759.691 240.329 759.422C239.982 759.145 239.518 759.006 238.938 759.006C238.366 759.006 237.902 759.145 237.547 759.422C237.2 759.691 237.027 760.077 237.027 760.579C237.027 761.091 237.2 761.485 237.547 761.762C237.902 762.031 238.366 762.165 238.938 762.165Z" fill="#454C66"/>
<path opacity="0.2" d="M192.21 795.168L164.867 795.168C161.091 795.168 158.031 798.229 158.031 802.004L158.031 829.348C158.031 833.123 161.091 836.184 164.867 836.184L192.21 836.184C195.986 836.184 199.046 833.123 199.046 829.348L199.046 802.004C199.046 798.229 195.986 795.168 192.21 795.168Z" fill="#BDBDC2"/>
<path d="M172.093 820.168L172.093 819.18L175.304 815.904C176.162 815.046 176.591 814.31 176.591 813.694C176.591 813.183 176.435 812.784 176.123 812.498C175.811 812.212 175.429 812.069 174.979 812.069C174.121 812.069 173.497 812.477 173.107 813.291L172.093 812.693C172.379 812.104 172.773 811.658 173.276 811.354C173.787 811.051 174.35 810.899 174.966 810.899C175.728 810.899 176.391 811.151 176.955 811.653C177.518 812.156 177.8 812.832 177.8 813.681C177.8 814.6 177.258 815.601 176.175 816.684L173.848 818.998L177.969 818.998L177.969 820.168L172.093 820.168ZM185.072 813.954C185.072 814.656 184.886 815.267 184.513 815.787L184.526 815.787L181.588 820.168L180.223 820.168L182.381 816.983C182.19 817.001 182.043 817.009 181.939 817.009C181.02 817.009 180.266 816.728 179.677 816.164C179.096 815.592 178.806 814.856 178.806 813.954C178.806 813.053 179.096 812.321 179.677 811.757C180.266 811.185 181.02 810.899 181.939 810.899C182.858 810.899 183.607 811.185 184.188 811.757C184.777 812.321 185.072 813.053 185.072 813.954ZM180.535 812.576C180.18 812.923 180.002 813.382 180.002 813.954C180.002 814.526 180.18 814.99 180.535 815.345C180.899 815.692 181.367 815.865 181.939 815.865C182.511 815.865 182.975 815.692 183.33 815.345C183.694 814.99 183.876 814.526 183.876 813.954C183.876 813.382 183.698 812.923 183.343 812.576C182.988 812.23 182.52 812.056 181.939 812.056C181.367 812.056 180.899 812.23 180.535 812.576Z" fill="#454C66"/>
<path opacity="0.2" d="M249.226 795.168L221.882 795.168C218.107 795.168 215.046 798.229 215.046 802.004L215.046 829.348C215.046 833.123 218.107 836.184 221.882 836.184L249.226 836.184C253.001 836.184 256.061 833.123 256.061 829.348L256.061 802.004C256.061 798.229 253.001 795.168 249.226 795.168Z" fill="#BDBDC2"/>
<path d="M232.081 814.799C232.775 814.929 233.342 815.228 233.784 815.696C234.226 816.164 234.447 816.758 234.447 817.477C234.447 818.361 234.144 819.059 233.537 819.57C232.931 820.082 232.194 820.337 231.327 820.337C230.634 820.337 230.019 820.181 229.481 819.869C228.944 819.549 228.563 819.089 228.337 818.491L229.351 817.893C229.62 818.734 230.279 819.154 231.327 819.154C231.891 819.154 232.35 819.007 232.705 818.712C233.061 818.418 233.238 818.006 233.238 817.477C233.238 816.949 233.061 816.537 232.705 816.242C232.35 815.939 231.891 815.787 231.327 815.787L231.015 815.787L230.534 815.046L232.64 812.199L228.597 812.199L228.597 811.068L234.057 811.068L234.057 812.134L232.081 814.799ZM241.612 819.05C240.997 819.908 240.135 820.337 239.025 820.337C237.916 820.337 237.054 819.908 236.438 819.05C235.823 818.192 235.515 817.048 235.515 815.618C235.515 814.188 235.823 813.044 236.438 812.186C237.054 811.328 237.916 810.899 239.025 810.899C240.135 810.899 240.997 811.328 241.612 812.186C242.228 813.044 242.535 814.188 242.535 815.618C242.535 817.048 242.228 818.192 241.612 819.05ZM237.322 818.231C237.721 818.847 238.289 819.154 239.025 819.154C239.762 819.154 240.33 818.847 240.728 818.231C241.136 817.616 241.339 816.745 241.339 815.618C241.339 814.492 241.136 813.621 240.728 813.005C240.33 812.381 239.762 812.069 239.025 812.069C238.289 812.069 237.721 812.377 237.322 812.992C236.924 813.608 236.724 814.483 236.724 815.618C236.724 816.745 236.924 817.616 237.322 818.231Z" fill="#454C66"/>
<path opacity="0.2" d="M192.21 852.184L164.867 852.184C161.091 852.184 158.031 855.245 158.031 859.02L158.031 886.364C158.031 890.139 161.091 893.199 164.867 893.199L192.21 893.199C195.986 893.199 199.046 890.139 199.046 886.364L199.046 859.02C199.046 855.245 195.986 852.184 192.21 852.184Z" fill="#BDBDC2"/>
<path d="M176.926 871.815C177.619 871.945 178.187 872.244 178.629 872.712C179.071 873.18 179.292 873.774 179.292 874.493C179.292 875.377 178.989 876.075 178.382 876.586C177.775 877.097 177.039 877.353 176.172 877.353C175.479 877.353 174.863 877.197 174.326 876.885C173.789 876.564 173.407 876.105 173.182 875.507L174.196 874.909C174.465 875.75 175.123 876.17 176.172 876.17C176.735 876.17 177.195 876.023 177.55 875.728C177.905 875.433 178.083 875.022 178.083 874.493C178.083 873.964 177.905 873.553 177.55 873.258C177.195 872.955 176.735 872.803 176.172 872.803L175.86 872.803L175.379 872.062L177.485 869.215L173.442 869.215L173.442 868.084L178.902 868.084L178.902 869.15L176.926 871.815ZM182.184 868.084L183.224 868.084L183.224 877.184L182.028 877.184L182.028 869.384L180.091 869.956L179.792 868.916L182.184 868.084Z" fill="#454C66"/>
<path opacity="0.2" d="M249.226 852.184L221.882 852.184C218.107 852.184 215.046 855.245 215.046 859.02L215.046 886.364C215.046 890.139 218.107 893.199 221.882 893.199L249.226 893.199C253.001 893.199 256.061 890.139 256.061 886.364L256.061 859.02C256.061 855.245 253.001 852.184 249.226 852.184Z" fill="#BDBDC2"/>
<path d="M230.301 877.184L230.301 876.196L233.512 872.92C234.37 872.062 234.799 871.325 234.799 870.71C234.799 870.199 234.643 869.8 234.331 869.514C234.019 869.228 233.638 869.085 233.187 869.085C232.329 869.085 231.705 869.492 231.315 870.307L230.301 869.709C230.587 869.12 230.982 868.673 231.484 868.37C231.996 868.067 232.559 867.915 233.174 867.915C233.937 867.915 234.6 868.166 235.163 868.669C235.727 869.172 236.008 869.848 236.008 870.697C236.008 871.616 235.467 872.617 234.383 873.7L232.056 876.014L236.177 876.014L236.177 877.184L230.301 877.184ZM239.199 868.084L240.239 868.084L240.239 877.184L239.043 877.184L239.043 869.384L237.106 869.956L236.807 868.916L239.199 868.084Z" fill="#454C66"/>
</svg>
