<svg width="257" height="854" viewBox="0 0 257 854" fill="none" xmlns="http://www.w3.org/2000/svg">
<path opacity="0.2" d="M34.1794 1.49403e-06L6.83589 2.98806e-07C3.06053 1.3378e-07 -1.3378e-07 3.06053 -2.98806e-07 6.83589L-1.49403e-06 34.1794C-1.65906e-06 37.9548 3.06053 41.0153 6.83589 41.0153L34.1794 41.0153C37.9548 41.0153 41.0153 37.9548 41.0153 34.1794L41.0153 6.83589C41.0153 3.06053 37.9548 1.65906e-06 34.1794 1.49403e-06Z" fill="#BDBDC2"/>
<path d="M20.7571 15.9L21.7971 15.9L21.7971 25L20.6011 25L20.6011 17.2L18.6641 17.772L18.3651 16.732L20.7571 15.9Z" fill="#454C66"/>
<path opacity="0.2" d="M91.1948 1.49403e-06L63.8513 2.98806e-07C60.0759 1.3378e-07 57.0154 3.06053 57.0154 6.83589L57.0154 34.1794C57.0154 37.9548 60.0759 41.0153 63.8513 41.0153L91.1948 41.0153C94.9702 41.0153 98.0307 37.9548 98.0307 34.1794L98.0307 6.83589C98.0307 3.06053 94.9702 1.65906e-06 91.1948 1.49403e-06Z" fill="#BDBDC2"/>
<path d="M74.5556 25L74.5556 24.012L77.7666 20.736C78.6246 19.878 79.0536 19.1413 79.0536 18.526C79.0536 18.0147 78.8976 17.616 78.5856 17.33C78.2736 17.044 77.8923 16.901 77.4416 16.901C76.5836 16.901 75.9596 17.3083 75.5696 18.123L74.5556 17.525C74.8416 16.9357 75.236 16.4893 75.7386 16.186C76.25 15.8827 76.8133 15.731 77.4286 15.731C78.1913 15.731 78.8543 15.9823 79.4176 16.485C79.981 16.9877 80.2626 17.6637 80.2626 18.513C80.2626 19.4317 79.721 20.4327 78.6376 21.516L76.3106 23.83L80.4316 23.83L80.4316 25L74.5556 25Z" fill="#454C66"/>
<path opacity="0.2" d="M34.1794 57.0154L6.83589 57.0154C3.06053 57.0154 -1.3378e-07 60.0759 -2.98806e-07 63.8513L-1.49403e-06 91.1948C-1.65906e-06 94.9702 3.06053 98.0307 6.83589 98.0307L34.1794 98.0307C37.9548 98.0307 41.0153 94.9702 41.0153 91.1948L41.0153 63.8513C41.0153 60.0759 37.9548 57.0154 34.1794 57.0154Z" fill="#BDBDC2"/>
<path d="M21.1295 76.6464C21.8228 76.7764 22.3905 77.0754 22.8325 77.5434C23.2745 78.0114 23.4955 78.605 23.4955 79.3244C23.4955 80.2084 23.1922 80.906 22.5855 81.4174C21.9788 81.9287 21.2422 82.1844 20.3755 82.1844C19.6822 82.1844 19.0668 82.0284 18.5295 81.7164C17.9922 81.3957 17.6108 80.9364 17.3855 80.3384L18.3995 79.7404C18.6682 80.581 19.3268 81.0014 20.3755 81.0014C20.9388 81.0014 21.3982 80.854 21.7535 80.5594C22.1088 80.2647 22.2865 79.853 22.2865 79.3244C22.2865 78.7957 22.1088 78.384 21.7535 78.0894C21.3982 77.786 20.9388 77.6344 20.3755 77.6344L20.0635 77.6344L19.5825 76.8934L21.6885 74.0464L17.6455 74.0464L17.6455 72.9154L23.1055 72.9154L23.1055 73.9814L21.1295 76.6464Z" fill="#454C66"/>
<path opacity="0.2" d="M91.1948 57.0154L63.8513 57.0154C60.0759 57.0154 57.0154 60.0759 57.0154 63.8513L57.0154 91.1948C57.0154 94.9702 60.0759 98.0307 63.8513 98.0307L91.1948 98.0307C94.9702 98.0307 98.0307 94.9702 98.0307 91.1948L98.0307 63.8513C98.0307 60.0759 94.9702 57.0154 91.1948 57.0154Z" fill="#BDBDC2"/>
<path d="M81.0119 79.1554L81.0119 80.2864L79.9069 80.2864L79.9069 82.0154L78.6979 82.0154L78.6979 80.2864L74.0569 80.2864L74.0569 79.1554L77.3199 72.9154L78.6199 72.9154L75.3569 79.1554L78.6979 79.1554L78.6979 76.5814L79.9069 76.5814L79.9069 79.1554L81.0119 79.1554Z" fill="#454C66"/>
<path opacity="0.2" d="M34.1794 114.031L6.83589 114.031C3.06053 114.031 -1.3378e-07 117.091 -2.98806e-07 120.867L-1.49403e-06 148.21C-1.65906e-06 151.986 3.06053 155.046 6.83589 155.046L34.1794 155.046C37.9548 155.046 41.0153 151.986 41.0153 148.21L41.0153 120.867C41.0153 117.091 37.9548 114.031 34.1794 114.031Z" fill="#BDBDC2"/>
<path d="M20.4807 133.48C21.3387 133.48 22.0624 133.735 22.6517 134.247C23.2497 134.749 23.5487 135.447 23.5487 136.34C23.5487 137.224 23.2454 137.921 22.6387 138.433C22.032 138.944 21.2954 139.2 20.4287 139.2C19.7354 139.2 19.1157 139.035 18.5697 138.706C18.0237 138.368 17.6424 137.882 17.4257 137.25L18.4527 136.665C18.574 137.107 18.808 137.445 19.1547 137.679C19.5014 137.904 19.926 138.017 20.4287 138.017C21.0007 138.017 21.4644 137.869 21.8197 137.575C22.175 137.28 22.3527 136.868 22.3527 136.34C22.3527 135.811 22.175 135.399 21.8197 135.105C21.4644 134.801 21.0094 134.65 20.4547 134.65L17.8807 134.65L18.2187 129.931L23.1977 129.931L23.1977 131.062L19.3107 131.062L19.1547 133.48L20.4807 133.48Z" fill="#454C66"/>
<path opacity="0.2" d="M91.1948 114.031L63.8513 114.031C60.0759 114.031 57.0154 117.091 57.0154 120.867L57.0154 148.21C57.0154 151.986 60.0759 155.046 63.8513 155.046L91.1948 155.046C94.9702 155.046 98.0307 151.986 98.0307 148.21L98.0307 120.867C98.0307 117.091 94.9702 114.031 91.1948 114.031Z" fill="#BDBDC2"/>
<path d="M77.5148 133.077C78.4248 133.077 79.1745 133.363 79.7638 133.935C80.3532 134.498 80.6478 135.23 80.6478 136.132C80.6478 137.033 80.3532 137.77 79.7638 138.342C79.1745 138.914 78.4248 139.2 77.5148 139.2C76.5962 139.2 75.8422 138.914 75.2528 138.342C74.6722 137.77 74.3818 137.033 74.3818 136.132C74.3818 135.43 74.5638 134.823 74.9278 134.312L77.8528 129.931L79.2308 129.931L77.0858 133.103C77.2765 133.085 77.4195 133.077 77.5148 133.077ZM76.1108 137.523C76.4748 137.869 76.9428 138.043 77.5148 138.043C78.0868 138.043 78.5505 137.869 78.9058 137.523C79.2698 137.167 79.4518 136.704 79.4518 136.132C79.4518 135.56 79.2698 135.1 78.9058 134.754C78.5505 134.407 78.0868 134.234 77.5148 134.234C76.9342 134.234 76.4662 134.407 76.1108 134.754C75.7555 135.1 75.5778 135.56 75.5778 136.132C75.5778 136.704 75.7555 137.167 76.1108 137.523Z" fill="#454C66"/>
<path opacity="0.2" d="M192.21 1.49403e-06L164.867 2.98806e-07C161.091 1.3378e-07 158.031 3.06053 158.031 6.83589L158.031 34.1794C158.031 37.9548 161.091 41.0153 164.867 41.0153L192.21 41.0153C195.986 41.0153 199.046 37.9548 199.046 34.1794L199.046 6.83589C199.046 3.06053 195.986 1.65906e-06 192.21 1.49403e-06Z" fill="#BDBDC2"/>
<path d="M175.601 15.9L176.641 15.9L176.641 25L175.445 25L175.445 17.2L173.508 17.772L173.209 16.732L175.601 15.9ZM177.895 15.9L183.576 15.9L183.576 16.979L180.261 25L179 25L182.289 17.044L177.895 17.044L177.895 15.9Z" fill="#454C66"/>
<path opacity="0.2" d="M249.226 1.49403e-06L221.882 2.98806e-07C218.107 1.3378e-07 215.046 3.06053 215.046 6.83589L215.046 34.1794C215.046 37.9548 218.107 41.0153 221.882 41.0153L249.226 41.0153C253.001 41.0153 256.061 37.9548 256.061 34.1794L256.061 6.83589C256.061 3.06053 253.001 1.65906e-06 249.226 1.49403e-06Z" fill="#BDBDC2"/>
<path d="M232.198 15.9L233.238 15.9L233.238 25L232.042 25L232.042 17.2L230.105 17.772L229.806 16.732L232.198 15.9ZM239.562 20.294C240.004 20.5193 240.35 20.8227 240.602 21.204C240.853 21.5853 240.979 22.0187 240.979 22.504C240.979 23.336 240.688 23.9903 240.108 24.467C239.527 24.935 238.777 25.169 237.859 25.169C236.949 25.169 236.203 24.935 235.623 24.467C235.042 23.9903 234.752 23.336 234.752 22.504C234.752 22.0187 234.877 21.5853 235.129 21.204C235.38 20.8227 235.727 20.5193 236.169 20.294C235.423 19.826 235.051 19.163 235.051 18.305C235.051 17.4817 235.324 16.849 235.87 16.407C236.424 15.9563 237.087 15.731 237.859 15.731C238.639 15.731 239.302 15.9563 239.848 16.407C240.402 16.849 240.68 17.4817 240.68 18.305C240.68 19.163 240.307 19.826 239.562 20.294ZM237.859 16.888C237.399 16.888 237.014 17.0093 236.702 17.252C236.398 17.4947 236.247 17.8543 236.247 18.331C236.247 18.7903 236.403 19.15 236.715 19.41C237.027 19.6613 237.408 19.787 237.859 19.787C238.309 19.787 238.691 19.6613 239.003 19.41C239.315 19.15 239.471 18.7903 239.471 18.331C239.471 17.8543 239.319 17.4947 239.016 17.252C238.712 17.0093 238.327 16.888 237.859 16.888ZM237.859 24.012C238.439 24.012 238.903 23.8777 239.25 23.609C239.605 23.3317 239.783 22.9373 239.783 22.426C239.783 21.9233 239.605 21.5377 239.25 21.269C238.903 20.9917 238.439 20.853 237.859 20.853C237.287 20.853 236.823 20.9917 236.468 21.269C236.121 21.5377 235.948 21.9233 235.948 22.426C235.948 22.9373 236.121 23.3317 236.468 23.609C236.823 23.8777 237.287 24.012 237.859 24.012Z" fill="#454C66"/>
<path opacity="0.2" d="M192.21 57.0154L164.867 57.0154C161.091 57.0154 158.031 60.0759 158.031 63.8513L158.031 91.1948C158.031 94.9702 161.091 98.0307 164.867 98.0307L192.21 98.0307C195.986 98.0307 199.046 94.9702 199.046 91.1948L199.046 63.8513C199.046 60.0759 195.986 57.0154 192.21 57.0154Z" fill="#BDBDC2"/>
<path d="M175.29 72.9154L176.33 72.9154L176.33 82.0154L175.134 82.0154L175.134 74.2154L173.197 74.7874L172.898 73.7474L175.29 72.9154ZM183.98 75.8014C183.98 76.5034 183.794 77.1144 183.421 77.6344L183.434 77.6344L180.496 82.0154L179.131 82.0154L181.289 78.8304C181.098 78.8477 180.951 78.8564 180.847 78.8564C179.928 78.8564 179.174 78.5747 178.585 78.0114C178.004 77.4394 177.714 76.7027 177.714 75.8014C177.714 74.9 178.004 74.1677 178.585 73.6044C179.174 73.0324 179.928 72.7464 180.847 72.7464C181.766 72.7464 182.515 73.0324 183.096 73.6044C183.685 74.1677 183.98 74.9 183.98 75.8014ZM179.443 74.4234C179.088 74.77 178.91 75.2294 178.91 75.8014C178.91 76.3734 179.088 76.837 179.443 77.1924C179.807 77.539 180.275 77.7124 180.847 77.7124C181.419 77.7124 181.883 77.539 182.238 77.1924C182.602 76.837 182.784 76.3734 182.784 75.8014C182.784 75.2294 182.606 74.77 182.251 74.4234C181.896 74.0767 181.428 73.9034 180.847 73.9034C180.275 73.9034 179.807 74.0767 179.443 74.4234Z" fill="#454C66"/>
<path opacity="0.2" d="M249.226 57.0154L221.882 57.0154C218.107 57.0154 215.046 60.0759 215.046 63.8513L215.046 91.1948C215.046 94.9702 218.107 98.0307 221.882 98.0307L249.226 98.0307C253.001 98.0307 256.061 94.9702 256.061 91.1948L256.061 63.8513C256.061 60.0759 253.001 57.0154 249.226 57.0154Z" fill="#BDBDC2"/>
<path d="M228.556 82.0154L228.556 81.0274L231.767 77.7514C232.625 76.8934 233.054 76.1567 233.054 75.5414C233.054 75.03 232.898 74.6314 232.586 74.3454C232.274 74.0594 231.892 73.9164 231.442 73.9164C230.584 73.9164 229.96 74.3237 229.57 75.1384L228.556 74.5404C228.842 73.951 229.236 73.5047 229.739 73.2014C230.25 72.898 230.813 72.7464 231.429 72.7464C232.191 72.7464 232.854 72.9977 233.418 73.5004C233.981 74.003 234.263 74.679 234.263 75.5284C234.263 76.447 233.721 77.448 232.638 78.5314L230.311 80.8454L234.432 80.8454L234.432 82.0154L228.556 82.0154ZM241.498 80.8974C240.883 81.7554 240.02 82.1844 238.911 82.1844C237.802 82.1844 236.939 81.7554 236.324 80.8974C235.709 80.0394 235.401 78.8954 235.401 77.4654C235.401 76.0354 235.709 74.8914 236.324 74.0334C236.939 73.1754 237.802 72.7464 238.911 72.7464C240.02 72.7464 240.883 73.1754 241.498 74.0334C242.113 74.8914 242.421 76.0354 242.421 77.4654C242.421 78.8954 242.113 80.0394 241.498 80.8974ZM237.208 80.0784C237.607 80.6937 238.174 81.0014 238.911 81.0014C239.648 81.0014 240.215 80.6937 240.614 80.0784C241.021 79.463 241.225 78.592 241.225 77.4654C241.225 76.3387 241.021 75.4677 240.614 74.8524C240.215 74.2284 239.648 73.9164 238.911 73.9164C238.174 73.9164 237.607 74.224 237.208 74.8394C236.809 75.4547 236.61 76.33 236.61 77.4654C236.61 78.592 236.809 79.463 237.208 80.0784Z" fill="#454C66"/>
<path opacity="0.2" d="M192.21 114.031L164.867 114.031C161.091 114.031 158.031 117.091 158.031 120.867L158.031 148.21C158.031 151.986 161.091 155.046 164.867 155.046L192.21 155.046C195.986 155.046 199.046 151.986 199.046 148.21L199.046 120.867C199.046 117.091 195.986 114.031 192.21 114.031Z" fill="#BDBDC2"/>
<path d="M173.286 139.031L173.286 138.043L176.497 134.767C177.355 133.909 177.784 133.172 177.784 132.557C177.784 132.045 177.628 131.647 177.316 131.361C177.004 131.075 176.623 130.932 176.172 130.932C175.314 130.932 174.69 131.339 174.3 132.154L173.286 131.556C173.572 130.966 173.966 130.52 174.469 130.217C174.98 129.913 175.544 129.762 176.159 129.762C176.922 129.762 177.585 130.013 178.148 130.516C178.711 131.018 178.993 131.694 178.993 132.544C178.993 133.462 178.451 134.463 177.368 135.547L175.041 137.861L179.162 137.861L179.162 139.031L173.286 139.031ZM182.184 129.931L183.224 129.931L183.224 139.031L182.028 139.031L182.028 131.231L180.091 131.803L179.792 130.763L182.184 129.931Z" fill="#454C66"/>
<path opacity="0.2" d="M249.226 114.031L221.882 114.031C218.107 114.031 215.046 117.091 215.046 120.867L215.046 148.21C215.046 151.986 218.107 155.046 221.882 155.046L249.226 155.046C253.001 155.046 256.061 151.986 256.061 148.21L256.061 120.867C256.061 117.091 253.001 114.031 249.226 114.031Z" fill="#BDBDC2"/>
<path d="M229.159 139.031L229.159 138.043L232.37 134.767C233.228 133.909 233.657 133.172 233.657 132.557C233.657 132.045 233.501 131.647 233.189 131.361C232.877 131.075 232.495 130.932 232.045 130.932C231.187 130.932 230.563 131.339 230.173 132.154L229.159 131.556C229.445 130.966 229.839 130.52 230.342 130.217C230.853 129.913 231.416 129.762 232.032 129.762C232.794 129.762 233.457 130.013 234.021 130.516C234.584 131.018 234.866 131.694 234.866 132.544C234.866 133.462 234.324 134.463 233.241 135.547L230.914 137.861L235.035 137.861L235.035 139.031L229.159 139.031ZM236.014 139.031L236.014 138.043L239.225 134.767C240.083 133.909 240.512 133.172 240.512 132.557C240.512 132.045 240.356 131.647 240.044 131.361C239.732 131.075 239.351 130.932 238.9 130.932C238.042 130.932 237.418 131.339 237.028 132.154L236.014 131.556C236.3 130.966 236.694 130.52 237.197 130.217C237.708 129.913 238.272 129.762 238.887 129.762C239.65 129.762 240.313 130.013 240.876 130.516C241.439 131.018 241.721 131.694 241.721 132.544C241.721 133.462 241.179 134.463 240.096 135.547L237.769 137.861L241.89 137.861L241.89 139.031L236.014 139.031Z" fill="#454C66"/>
<path opacity="0.2" d="M34.1794 235.046L6.83589 235.046C3.06053 235.046 -1.3378e-07 238.106 -2.98806e-07 241.882L-1.49403e-06 269.225C-1.65906e-06 273.001 3.06053 276.061 6.83589 276.061L34.1794 276.061C37.9548 276.061 41.0153 273.001 41.0153 269.225L41.0153 241.882C41.0153 238.106 37.9548 235.046 34.1794 235.046Z" fill="#BDBDC2"/>
<path d="M17.5475 250.946L23.2285 250.946L23.2285 252.025L19.9135 260.046L18.6525 260.046L21.9415 252.09L17.5475 252.09L17.5475 250.946Z" fill="#454C66"/>
<path opacity="0.2" d="M91.1948 235.046L63.8513 235.046C60.0759 235.046 57.0154 238.106 57.0154 241.882L57.0154 269.225C57.0154 273.001 60.0759 276.061 63.8513 276.061L91.1948 276.061C94.9702 276.061 98.0307 273.001 98.0307 269.225L98.0307 241.882C98.0307 238.106 94.9702 235.046 91.1948 235.046Z" fill="#BDBDC2"/>
<path d="M79.2139 255.34C79.6559 255.565 80.0026 255.869 80.2539 256.25C80.5052 256.631 80.6309 257.065 80.6309 257.55C80.6309 258.382 80.3406 259.036 79.7599 259.513C79.1792 259.981 78.4296 260.215 77.5109 260.215C76.6009 260.215 75.8556 259.981 75.2749 259.513C74.6942 259.036 74.4039 258.382 74.4039 257.55C74.4039 257.065 74.5296 256.631 74.7809 256.25C75.0322 255.869 75.3789 255.565 75.8209 255.34C75.0756 254.872 74.7029 254.209 74.7029 253.351C74.7029 252.528 74.9759 251.895 75.5219 251.453C76.0766 251.002 76.7396 250.777 77.5109 250.777C78.2909 250.777 78.9539 251.002 79.4999 251.453C80.0546 251.895 80.3319 252.528 80.3319 253.351C80.3319 254.209 79.9592 254.872 79.2139 255.34ZM77.5109 251.934C77.0516 251.934 76.6659 252.055 76.3539 252.298C76.0506 252.541 75.8989 252.9 75.8989 253.377C75.8989 253.836 76.0549 254.196 76.3669 254.456C76.6789 254.707 77.0602 254.833 77.5109 254.833C77.9616 254.833 78.3429 254.707 78.6549 254.456C78.9669 254.196 79.1229 253.836 79.1229 253.377C79.1229 252.9 78.9712 252.541 78.6679 252.298C78.3646 252.055 77.9789 251.934 77.5109 251.934ZM77.5109 259.058C78.0916 259.058 78.5552 258.924 78.9019 258.655C79.2572 258.378 79.4349 257.983 79.4349 257.472C79.4349 256.969 79.2572 256.584 78.9019 256.315C78.5552 256.038 78.0916 255.899 77.5109 255.899C76.9389 255.899 76.4752 256.038 76.1199 256.315C75.7732 256.584 75.5999 256.969 75.5999 257.472C75.5999 257.983 75.7732 258.378 76.1199 258.655C76.4752 258.924 76.9389 259.058 77.5109 259.058Z" fill="#454C66"/>
<path opacity="0.2" d="M34.1794 292.061L6.83589 292.061C3.06053 292.061 -1.3378e-07 295.122 -2.98806e-07 298.897L-1.49403e-06 326.24C-1.65906e-06 330.016 3.06053 333.076 6.83589 333.076L34.1794 333.076C37.9548 333.076 41.0153 330.016 41.0153 326.24L41.0153 298.897C41.0153 295.122 37.9548 292.061 34.1794 292.061Z" fill="#BDBDC2"/>
<path d="M23.6324 310.847C23.6324 311.549 23.4461 312.16 23.0734 312.68L23.0864 312.68L20.1484 317.061L18.7834 317.061L20.9414 313.876C20.7508 313.893 20.6034 313.902 20.4994 313.902C19.5808 313.902 18.8268 313.62 18.2374 313.057C17.6568 312.485 17.3664 311.748 17.3664 310.847C17.3664 309.946 17.6568 309.213 18.2374 308.65C18.8268 308.078 19.5808 307.792 20.4994 307.792C21.4181 307.792 22.1678 308.078 22.7484 308.65C23.3378 309.213 23.6324 309.946 23.6324 310.847ZM19.0954 309.469C18.7401 309.816 18.5624 310.275 18.5624 310.847C18.5624 311.419 18.7401 311.883 19.0954 312.238C19.4594 312.585 19.9274 312.758 20.4994 312.758C21.0714 312.758 21.5351 312.585 21.8904 312.238C22.2544 311.883 22.4364 311.419 22.4364 310.847C22.4364 310.275 22.2588 309.816 21.9034 309.469C21.5481 309.122 21.0801 308.949 20.4994 308.949C19.9274 308.949 19.4594 309.122 19.0954 309.469Z" fill="#454C66"/>
<path opacity="0.2" d="M91.1948 292.061L63.8513 292.061C60.0759 292.061 57.0154 295.122 57.0154 298.897L57.0154 326.24C57.0154 330.016 60.0759 333.076 63.8513 333.076L91.1948 333.076C94.9702 333.076 98.0307 330.016 98.0307 326.24L98.0307 298.897C98.0307 295.122 94.9702 292.061 91.1948 292.061Z" fill="#BDBDC2"/>
<path d="M80.6478 310.847C80.6478 311.549 80.4615 312.16 80.0888 312.68L80.1018 312.68L77.1638 317.061L75.7988 317.061L77.9568 313.876C77.7662 313.893 77.6188 313.902 77.5148 313.902C76.5962 313.902 75.8422 313.62 75.2528 313.057C74.6722 312.485 74.3818 311.748 74.3818 310.847C74.3818 309.946 74.6722 309.213 75.2528 308.65C75.8422 308.078 76.5962 307.792 77.5148 307.792C78.4335 307.792 79.1832 308.078 79.7638 308.65C80.3532 309.213 80.6478 309.946 80.6478 310.847ZM76.1108 309.469C75.7555 309.816 75.5778 310.275 75.5778 310.847C75.5778 311.419 75.7555 311.883 76.1108 312.238C76.4748 312.585 76.9428 312.758 77.5148 312.758C78.0868 312.758 78.5505 312.585 78.9058 312.238C79.2698 311.883 79.4518 311.419 79.4518 310.847C79.4518 310.275 79.2742 309.816 78.9188 309.469C78.5635 309.122 78.0955 308.949 77.5148 308.949C76.9428 308.949 76.4748 309.122 76.1108 309.469Z" fill="#454C66"/>
<path opacity="0.2" d="M34.1794 349.077L6.83589 349.077C3.06053 349.077 -1.3378e-07 352.137 -2.98806e-07 355.913L-1.49403e-06 383.256C-1.65906e-06 387.031 3.06053 390.092 6.83589 390.092L34.1794 390.092C37.9548 390.092 41.0153 387.031 41.0153 383.256L41.0153 355.913C41.0153 352.137 37.9548 349.077 34.1794 349.077Z" fill="#BDBDC2"/>
<path d="M18.4402 364.977L19.4802 364.977L19.4802 374.077L18.2842 374.077L18.2842 366.277L16.3472 366.849L16.0482 365.809L18.4402 364.977ZM23.074 364.977L24.114 364.977L24.114 374.077L22.918 374.077L22.918 366.277L20.981 366.849L20.682 365.809L23.074 364.977Z" fill="#454C66"/>
<path opacity="0.2" d="M91.1948 349.077L63.8513 349.077C60.0759 349.077 57.0154 352.137 57.0154 355.913L57.0154 383.256C57.0154 387.031 60.0759 390.092 63.8513 390.092L91.1948 390.092C94.9702 390.092 98.0307 387.031 98.0307 383.256L98.0307 355.913C98.0307 352.137 94.9702 349.077 91.1948 349.077Z" fill="#BDBDC2"/>
<path d="M73.8448 364.977L74.8848 364.977L74.8848 374.077L73.6888 374.077L73.6888 366.277L71.7518 366.849L71.4528 365.809L73.8448 364.977ZM76.3725 374.077L76.3725 373.089L79.5835 369.813C80.4415 368.955 80.8705 368.218 80.8705 367.603C80.8705 367.091 80.7145 366.693 80.4025 366.407C80.0905 366.121 79.7092 365.978 79.2585 365.978C78.4005 365.978 77.7765 366.385 77.3865 367.2L76.3725 366.602C76.6585 366.012 77.0529 365.566 77.5555 365.263C78.0669 364.959 78.6302 364.808 79.2455 364.808C80.0082 364.808 80.6712 365.059 81.2345 365.562C81.7979 366.064 82.0795 366.74 82.0795 367.59C82.0795 368.508 81.5379 369.509 80.4545 370.593L78.1275 372.907L82.2485 372.907L82.2485 374.077L76.3725 374.077Z" fill="#454C66"/>
<path opacity="0.2" d="M34.1794 406.092L6.83589 406.092C3.06053 406.092 -1.3378e-07 409.152 -2.98806e-07 412.928L-1.49403e-06 440.271C-1.65906e-06 444.047 3.06053 447.107 6.83589 447.107L34.1794 447.107C37.9548 447.107 41.0153 444.047 41.0153 440.271L41.0153 412.928C41.0153 409.152 37.9548 406.092 34.1794 406.092Z" fill="#BDBDC2"/>
<path d="M17.2786 421.992L18.3186 421.992L18.3186 431.092L17.1226 431.092L17.1226 423.292L15.1856 423.864L14.8866 422.824L17.2786 421.992ZM23.4464 425.723C24.1397 425.853 24.7074 426.152 25.1494 426.62C25.5914 427.088 25.8124 427.681 25.8124 428.401C25.8124 429.285 25.509 429.982 24.9024 430.494C24.2957 431.005 23.559 431.261 22.6924 431.261C21.999 431.261 21.3837 431.105 20.8464 430.793C20.309 430.472 19.9277 430.013 19.7024 429.415L20.7164 428.817C20.985 429.657 21.6437 430.078 22.6924 430.078C23.2557 430.078 23.715 429.93 24.0704 429.636C24.4257 429.341 24.6034 428.929 24.6034 428.401C24.6034 427.872 24.4257 427.46 24.0704 427.166C23.715 426.862 23.2557 426.711 22.6924 426.711L22.3804 426.711L21.8994 425.97L24.0054 423.123L19.9624 423.123L19.9624 421.992L25.4224 421.992L25.4224 423.058L23.4464 425.723Z" fill="#454C66"/>
<path opacity="0.2" d="M91.1948 406.092L63.8513 406.092C60.0759 406.092 57.0154 409.152 57.0154 412.928L57.0154 440.271C57.0154 444.047 60.0759 447.107 63.8513 447.107L91.1948 447.107C94.9702 447.107 98.0307 444.047 98.0307 440.271L98.0307 412.928C98.0307 409.152 94.9702 406.092 91.1948 406.092Z" fill="#BDBDC2"/>
<path d="M74.002 421.992L75.042 421.992L75.042 431.092L73.846 431.092L73.846 423.292L71.909 423.864L71.61 422.824L74.002 421.992ZM83.3288 428.232L83.3288 429.363L82.2238 429.363L82.2238 431.092L81.0148 431.092L81.0148 429.363L76.3738 429.363L76.3738 428.232L79.6368 421.992L80.9368 421.992L77.6738 428.232L81.0148 428.232L81.0148 425.658L82.2238 425.658L82.2238 428.232L83.3288 428.232Z" fill="#454C66"/>
<path opacity="0.2" d="M34.1794 463.107L6.83589 463.107C3.06053 463.107 -1.3378e-07 466.168 -2.98806e-07 469.943L-1.49403e-06 497.287C-1.65906e-06 501.062 3.06053 504.123 6.83589 504.123L34.1794 504.123C37.9548 504.123 41.0153 501.062 41.0153 497.287L41.0153 469.943C41.0153 466.168 37.9548 463.107 34.1794 463.107Z" fill="#BDBDC2"/>
<path d="M17.2278 479.007L18.2678 479.007L18.2678 488.107L17.0718 488.107L17.0718 480.307L15.1348 480.879L14.8358 479.839L17.2278 479.007ZM22.7976 482.556C23.6556 482.556 24.3793 482.812 24.9686 483.323C25.5666 483.826 25.8656 484.524 25.8656 485.416C25.8656 486.3 25.5623 486.998 24.9556 487.509C24.3489 488.021 23.6123 488.276 22.7456 488.276C22.0523 488.276 21.4326 488.112 20.8866 487.782C20.3406 487.444 19.9593 486.959 19.7426 486.326L20.7696 485.741C20.8909 486.183 21.1249 486.521 21.4716 486.755C21.8183 486.981 22.2429 487.093 22.7456 487.093C23.3176 487.093 23.7813 486.946 24.1366 486.651C24.4919 486.357 24.6696 485.945 24.6696 485.416C24.6696 484.888 24.4919 484.476 24.1366 484.181C23.7813 483.878 23.3263 483.726 22.7716 483.726L20.1976 483.726L20.5356 479.007L25.5146 479.007L25.5146 480.138L21.6276 480.138L21.4716 482.556L22.7976 482.556Z" fill="#454C66"/>
<path opacity="0.2" d="M91.1948 463.107L63.8513 463.107C60.0759 463.107 57.0154 466.168 57.0154 469.943L57.0154 497.287C57.0154 501.062 60.0759 504.123 63.8513 504.123L91.1948 504.123C94.9702 504.123 98.0307 501.062 98.0307 497.287L98.0307 469.943C98.0307 466.168 94.9702 463.107 91.1948 463.107Z" fill="#BDBDC2"/>
<path d="M74.2749 479.007L75.3149 479.007L75.3149 488.107L74.1189 488.107L74.1189 480.307L72.1819 480.879L71.8829 479.839L74.2749 479.007ZM79.8317 482.153C80.7417 482.153 81.4914 482.439 82.0807 483.011C82.6701 483.575 82.9647 484.307 82.9647 485.208C82.9647 486.11 82.6701 486.846 82.0807 487.418C81.4914 487.99 80.7417 488.276 79.8317 488.276C78.9131 488.276 78.1591 487.99 77.5697 487.418C76.9891 486.846 76.6987 486.11 76.6987 485.208C76.6987 484.506 76.8807 483.9 77.2447 483.388L80.1697 479.007L81.5477 479.007L79.4027 482.179C79.5934 482.162 79.7364 482.153 79.8317 482.153ZM78.4277 486.599C78.7917 486.946 79.2597 487.119 79.8317 487.119C80.4037 487.119 80.8674 486.946 81.2227 486.599C81.5867 486.244 81.7687 485.78 81.7687 485.208C81.7687 484.636 81.5867 484.177 81.2227 483.83C80.8674 483.484 80.4037 483.31 79.8317 483.31C79.2511 483.31 78.7831 483.484 78.4277 483.83C78.0724 484.177 77.8947 484.636 77.8947 485.208C77.8947 485.78 78.0724 486.244 78.4277 486.599Z" fill="#454C66"/>
<path opacity="0.2" d="M192.21 235.046L164.867 235.046C161.091 235.046 158.031 238.106 158.031 241.882L158.031 269.225C158.031 273.001 161.091 276.061 164.867 276.061L192.21 276.061C195.986 276.061 199.046 273.001 199.046 269.225L199.046 241.882C199.046 238.106 195.986 235.046 192.21 235.046Z" fill="#BDBDC2"/>
<path d="M172.156 260.046L172.156 259.058L175.367 255.782C176.225 254.924 176.654 254.187 176.654 253.572C176.654 253.061 176.498 252.662 176.186 252.376C175.874 252.09 175.493 251.947 175.042 251.947C174.184 251.947 173.56 252.354 173.17 253.169L172.156 252.571C172.442 251.982 172.836 251.535 173.339 251.232C173.85 250.929 174.414 250.777 175.029 250.777C175.792 250.777 176.455 251.028 177.018 251.531C177.581 252.034 177.863 252.71 177.863 253.559C177.863 254.478 177.321 255.479 176.238 256.562L173.911 258.876L178.032 258.876L178.032 260.046L172.156 260.046ZM182.525 254.677C183.218 254.807 183.786 255.106 184.228 255.574C184.67 256.042 184.891 256.636 184.891 257.355C184.891 258.239 184.587 258.937 183.981 259.448C183.374 259.959 182.637 260.215 181.771 260.215C181.077 260.215 180.462 260.059 179.925 259.747C179.387 259.426 179.006 258.967 178.781 258.369L179.795 257.771C180.063 258.612 180.722 259.032 181.771 259.032C182.334 259.032 182.793 258.885 183.149 258.59C183.504 258.295 183.682 257.884 183.682 257.355C183.682 256.826 183.504 256.415 183.149 256.12C182.793 255.817 182.334 255.665 181.771 255.665L181.459 255.665L180.978 254.924L183.084 252.077L179.041 252.077L179.041 250.946L184.501 250.946L184.501 252.012L182.525 254.677Z" fill="#454C66"/>
<path opacity="0.2" d="M249.226 235.046L221.882 235.046C218.107 235.046 215.046 238.106 215.046 241.882L215.046 269.225C215.046 273.001 218.107 276.061 221.882 276.061L249.226 276.061C253.001 276.061 256.061 273.001 256.061 269.225L256.061 241.882C256.061 238.106 253.001 235.046 249.226 235.046Z" fill="#BDBDC2"/>
<path d="M228.93 260.046L228.93 259.058L232.141 255.782C232.999 254.924 233.428 254.187 233.428 253.572C233.428 253.061 233.272 252.662 232.96 252.376C232.648 252.09 232.267 251.947 231.816 251.947C230.958 251.947 230.334 252.354 229.944 253.169L228.93 252.571C229.216 251.982 229.61 251.535 230.113 251.232C230.624 250.929 231.188 250.777 231.803 250.777C232.566 250.777 233.229 251.028 233.792 251.531C234.355 252.034 234.637 252.71 234.637 253.559C234.637 254.478 234.095 255.479 233.012 256.562L230.685 258.876L234.806 258.876L234.806 260.046L228.93 260.046ZM242.356 257.186L242.356 258.317L241.251 258.317L241.251 260.046L240.042 260.046L240.042 258.317L235.401 258.317L235.401 257.186L238.664 250.946L239.964 250.946L236.701 257.186L240.042 257.186L240.042 254.612L241.251 254.612L241.251 257.186L242.356 257.186Z" fill="#454C66"/>
<path opacity="0.2" d="M192.21 292.061L164.867 292.061C161.091 292.061 158.031 295.122 158.031 298.897L158.031 326.24C158.031 330.016 161.091 333.076 164.867 333.076L192.21 333.076C195.986 333.076 199.046 330.016 199.046 326.24L199.046 298.897C199.046 295.122 195.986 292.061 192.21 292.061Z" fill="#BDBDC2"/>
<path d="M172.093 317.061L172.093 316.073L175.304 312.797C176.162 311.939 176.591 311.202 176.591 310.587C176.591 310.076 176.435 309.677 176.123 309.391C175.811 309.105 175.429 308.962 174.979 308.962C174.121 308.962 173.497 309.369 173.107 310.184L172.093 309.586C172.379 308.997 172.773 308.55 173.276 308.247C173.787 307.944 174.35 307.792 174.966 307.792C175.728 307.792 176.391 308.043 176.955 308.546C177.518 309.049 177.8 309.725 177.8 310.574C177.8 311.493 177.258 312.494 176.175 313.577L173.848 315.891L177.969 315.891L177.969 317.061L172.093 317.061ZM181.888 311.51C182.746 311.51 183.47 311.766 184.059 312.277C184.657 312.78 184.956 313.477 184.956 314.37C184.956 315.254 184.653 315.952 184.046 316.463C183.44 316.974 182.703 317.23 181.836 317.23C181.143 317.23 180.523 317.065 179.977 316.736C179.431 316.398 179.05 315.913 178.833 315.28L179.86 314.695C179.982 315.137 180.216 315.475 180.562 315.709C180.909 315.934 181.334 316.047 181.836 316.047C182.408 316.047 182.872 315.9 183.227 315.605C183.583 315.31 183.76 314.899 183.76 314.37C183.76 313.841 183.583 313.43 183.227 313.135C182.872 312.832 182.417 312.68 181.862 312.68L179.288 312.68L179.626 307.961L184.605 307.961L184.605 309.092L180.718 309.092L180.562 311.51L181.888 311.51Z" fill="#454C66"/>
<path opacity="0.2" d="M249.226 292.061L221.882 292.061C218.107 292.061 215.046 295.122 215.046 298.897L215.046 326.24C215.046 330.016 218.107 333.076 221.882 333.076L249.226 333.076C253.001 333.076 256.061 330.016 256.061 326.24L256.061 298.897C256.061 295.122 253.001 292.061 249.226 292.061Z" fill="#BDBDC2"/>
<path d="M229.203 317.061L229.203 316.073L232.414 312.797C233.272 311.939 233.701 311.202 233.701 310.587C233.701 310.076 233.545 309.677 233.233 309.391C232.921 309.105 232.54 308.962 232.089 308.962C231.231 308.962 230.607 309.369 230.217 310.184L229.203 309.586C229.489 308.997 229.883 308.55 230.386 308.247C230.897 307.944 231.461 307.792 232.076 307.792C232.839 307.792 233.502 308.043 234.065 308.546C234.628 309.049 234.91 309.725 234.91 310.574C234.91 311.493 234.368 312.494 233.285 313.577L230.958 315.891L235.079 315.891L235.079 317.061L229.203 317.061ZM238.859 311.107C239.769 311.107 240.519 311.393 241.108 311.965C241.697 312.528 241.992 313.261 241.992 314.162C241.992 315.063 241.697 315.8 241.108 316.372C240.519 316.944 239.769 317.23 238.859 317.23C237.94 317.23 237.186 316.944 236.597 316.372C236.016 315.8 235.726 315.063 235.726 314.162C235.726 313.46 235.908 312.853 236.272 312.342L239.197 307.961L240.575 307.961L238.43 311.133C238.621 311.116 238.764 311.107 238.859 311.107ZM237.455 315.553C237.819 315.9 238.287 316.073 238.859 316.073C239.431 316.073 239.895 315.9 240.25 315.553C240.614 315.198 240.796 314.734 240.796 314.162C240.796 313.59 240.614 313.131 240.25 312.784C239.895 312.437 239.431 312.264 238.859 312.264C238.278 312.264 237.81 312.437 237.455 312.784C237.1 313.131 236.922 313.59 236.922 314.162C236.922 314.734 237.1 315.198 237.455 315.553Z" fill="#454C66"/>
<path opacity="0.2" d="M192.21 349.077L164.867 349.077C161.091 349.077 158.031 352.137 158.031 355.913L158.031 383.256C158.031 387.031 161.091 390.092 164.867 390.092L192.21 390.092C195.986 390.092 199.046 387.031 199.046 383.256L199.046 355.913C199.046 352.137 195.986 349.077 192.21 349.077Z" fill="#BDBDC2"/>
<path d="M172.511 374.077L172.511 373.089L175.722 369.813C176.58 368.955 177.009 368.218 177.009 367.603C177.009 367.091 176.853 366.693 176.541 366.407C176.229 366.121 175.848 365.978 175.397 365.978C174.539 365.978 173.915 366.385 173.525 367.2L172.511 366.602C172.797 366.012 173.192 365.566 173.694 365.263C174.206 364.959 174.769 364.808 175.384 364.808C176.147 364.808 176.81 365.059 177.373 365.562C177.937 366.064 178.218 366.74 178.218 367.59C178.218 368.508 177.677 369.509 176.593 370.593L174.266 372.907L178.387 372.907L178.387 374.077L172.511 374.077ZM178.879 364.977L184.56 364.977L184.56 366.056L181.245 374.077L179.984 374.077L183.273 366.121L178.879 366.121L178.879 364.977Z" fill="#454C66"/>
<path opacity="0.2" d="M249.226 349.077L221.882 349.077C218.107 349.077 215.046 352.137 215.046 355.913L215.046 383.256C215.046 387.031 218.107 390.092 221.882 390.092L249.226 390.092C253.001 390.092 256.061 387.031 256.061 383.256L256.061 355.913C256.061 352.137 253.001 349.077 249.226 349.077Z" fill="#BDBDC2"/>
<path d="M229.013 374.077L229.013 373.089L232.224 369.813C233.082 368.955 233.511 368.218 233.511 367.603C233.511 367.091 233.355 366.693 233.043 366.407C232.731 366.121 232.349 365.978 231.899 365.978C231.041 365.978 230.417 366.385 230.027 367.2L229.013 366.602C229.299 366.012 229.693 365.566 230.196 365.263C230.707 364.959 231.27 364.808 231.886 364.808C232.648 364.808 233.311 365.059 233.875 365.562C234.438 366.064 234.72 366.74 234.72 367.59C234.72 368.508 234.178 369.509 233.095 370.593L230.768 372.907L234.889 372.907L234.889 374.077L229.013 374.077ZM240.641 369.371C241.083 369.596 241.429 369.899 241.681 370.281C241.932 370.662 242.058 371.095 242.058 371.581C242.058 372.413 241.767 373.067 241.187 373.544C240.606 374.012 239.856 374.246 238.938 374.246C238.028 374.246 237.282 374.012 236.702 373.544C236.121 373.067 235.831 372.413 235.831 371.581C235.831 371.095 235.956 370.662 236.208 370.281C236.459 369.899 236.806 369.596 237.248 369.371C236.502 368.903 236.13 368.24 236.13 367.382C236.13 366.558 236.403 365.926 236.949 365.484C237.503 365.033 238.166 364.808 238.938 364.808C239.718 364.808 240.381 365.033 240.927 365.484C241.481 365.926 241.759 366.558 241.759 367.382C241.759 368.24 241.386 368.903 240.641 369.371ZM238.938 365.965C238.478 365.965 238.093 366.086 237.781 366.329C237.477 366.571 237.326 366.931 237.326 367.408C237.326 367.867 237.482 368.227 237.794 368.487C238.106 368.738 238.487 368.864 238.938 368.864C239.388 368.864 239.77 368.738 240.082 368.487C240.394 368.227 240.55 367.867 240.55 367.408C240.55 366.931 240.398 366.571 240.095 366.329C239.791 366.086 239.406 365.965 238.938 365.965ZM238.938 373.089C239.518 373.089 239.982 372.954 240.329 372.686C240.684 372.408 240.862 372.014 240.862 371.503C240.862 371 240.684 370.614 240.329 370.346C239.982 370.068 239.518 369.93 238.938 369.93C238.366 369.93 237.902 370.068 237.547 370.346C237.2 370.614 237.027 371 237.027 371.503C237.027 372.014 237.2 372.408 237.547 372.686C237.902 372.954 238.366 373.089 238.938 373.089Z" fill="#454C66"/>
<path opacity="0.2" d="M192.21 406.092L164.867 406.092C161.091 406.092 158.031 409.152 158.031 412.928L158.031 440.271C158.031 444.047 161.091 447.107 164.867 447.107L192.21 447.107C195.986 447.107 199.046 444.047 199.046 440.271L199.046 412.928C199.046 409.152 195.986 406.092 192.21 406.092Z" fill="#BDBDC2"/>
<path d="M172.093 431.092L172.093 430.104L175.304 426.828C176.162 425.97 176.591 425.233 176.591 424.618C176.591 424.106 176.435 423.708 176.123 423.422C175.811 423.136 175.429 422.993 174.979 422.993C174.121 422.993 173.497 423.4 173.107 424.215L172.093 423.617C172.379 423.027 172.773 422.581 173.276 422.278C173.787 421.974 174.35 421.823 174.966 421.823C175.728 421.823 176.391 422.074 176.955 422.577C177.518 423.079 177.8 423.755 177.8 424.605C177.8 425.523 177.258 426.524 176.175 427.608L173.848 429.922L177.969 429.922L177.969 431.092L172.093 431.092ZM185.072 424.878C185.072 425.58 184.886 426.191 184.513 426.711L184.526 426.711L181.588 431.092L180.223 431.092L182.381 427.907C182.19 427.924 182.043 427.933 181.939 427.933C181.02 427.933 180.266 427.651 179.677 427.088C179.096 426.516 178.806 425.779 178.806 424.878C178.806 423.976 179.096 423.244 179.677 422.681C180.266 422.109 181.02 421.823 181.939 421.823C182.858 421.823 183.607 422.109 184.188 422.681C184.777 423.244 185.072 423.976 185.072 424.878ZM180.535 423.5C180.18 423.846 180.002 424.306 180.002 424.878C180.002 425.45 180.18 425.913 180.535 426.269C180.899 426.615 181.367 426.789 181.939 426.789C182.511 426.789 182.975 426.615 183.33 426.269C183.694 425.913 183.876 425.45 183.876 424.878C183.876 424.306 183.698 423.846 183.343 423.5C182.988 423.153 182.52 422.98 181.939 422.98C181.367 422.98 180.899 423.153 180.535 423.5Z" fill="#454C66"/>
<path opacity="0.2" d="M249.226 406.092L221.882 406.092C218.107 406.092 215.046 409.152 215.046 412.928L215.046 440.271C215.046 444.047 218.107 447.107 221.882 447.107L249.226 447.107C253.001 447.107 256.061 444.047 256.061 440.271L256.061 412.928C256.061 409.152 253.001 406.092 249.226 406.092Z" fill="#BDBDC2"/>
<path d="M232.081 425.723C232.775 425.853 233.342 426.152 233.784 426.62C234.226 427.088 234.447 427.681 234.447 428.401C234.447 429.285 234.144 429.982 233.537 430.494C232.931 431.005 232.194 431.261 231.327 431.261C230.634 431.261 230.019 431.105 229.481 430.793C228.944 430.472 228.563 430.013 228.337 429.415L229.351 428.817C229.62 429.657 230.279 430.078 231.327 430.078C231.891 430.078 232.35 429.93 232.705 429.636C233.061 429.341 233.238 428.929 233.238 428.401C233.238 427.872 233.061 427.46 232.705 427.166C232.35 426.862 231.891 426.711 231.327 426.711L231.015 426.711L230.534 425.97L232.64 423.123L228.597 423.123L228.597 421.992L234.057 421.992L234.057 423.058L232.081 425.723ZM241.612 429.974C240.997 430.832 240.135 431.261 239.025 431.261C237.916 431.261 237.054 430.832 236.438 429.974C235.823 429.116 235.515 427.972 235.515 426.542C235.515 425.112 235.823 423.968 236.438 423.11C237.054 422.252 237.916 421.823 239.025 421.823C240.135 421.823 240.997 422.252 241.612 423.11C242.228 423.968 242.535 425.112 242.535 426.542C242.535 427.972 242.228 429.116 241.612 429.974ZM237.322 429.155C237.721 429.77 238.289 430.078 239.025 430.078C239.762 430.078 240.33 429.77 240.728 429.155C241.136 428.539 241.339 427.668 241.339 426.542C241.339 425.415 241.136 424.544 240.728 423.929C240.33 423.305 239.762 422.993 239.025 422.993C238.289 422.993 237.721 423.3 237.322 423.916C236.924 424.531 236.724 425.406 236.724 426.542C236.724 427.668 236.924 428.539 237.322 429.155Z" fill="#454C66"/>
<path opacity="0.2" d="M192.21 463.107L164.867 463.107C161.091 463.107 158.031 466.168 158.031 469.943L158.031 497.287C158.031 501.062 161.091 504.123 164.867 504.123L192.21 504.123C195.986 504.123 199.046 501.062 199.046 497.287L199.046 469.943C199.046 466.168 195.986 463.107 192.21 463.107Z" fill="#BDBDC2"/>
<path d="M176.926 482.738C177.619 482.868 178.187 483.167 178.629 483.635C179.071 484.103 179.292 484.697 179.292 485.416C179.292 486.3 178.989 486.998 178.382 487.509C177.775 488.021 177.039 488.276 176.172 488.276C175.479 488.276 174.863 488.12 174.326 487.808C173.789 487.488 173.407 487.028 173.182 486.43L174.196 485.832C174.465 486.673 175.123 487.093 176.172 487.093C176.735 487.093 177.195 486.946 177.55 486.651C177.905 486.357 178.083 485.945 178.083 485.416C178.083 484.888 177.905 484.476 177.55 484.181C177.195 483.878 176.735 483.726 176.172 483.726L175.86 483.726L175.379 482.985L177.485 480.138L173.442 480.138L173.442 479.007L178.902 479.007L178.902 480.073L176.926 482.738ZM182.184 479.007L183.224 479.007L183.224 488.107L182.028 488.107L182.028 480.307L180.091 480.879L179.792 479.839L182.184 479.007Z" fill="#454C66"/>
<path opacity="0.2" d="M249.226 463.107L221.882 463.107C218.107 463.107 215.046 466.168 215.046 469.943L215.046 497.287C215.046 501.062 218.107 504.123 221.882 504.123L249.226 504.123C253.001 504.123 256.061 501.062 256.061 497.287L256.061 469.943C256.061 466.168 253.001 463.107 249.226 463.107Z" fill="#BDBDC2"/>
<path d="M230.301 488.107L230.301 487.119L233.512 483.843C234.37 482.985 234.799 482.249 234.799 481.633C234.799 481.122 234.643 480.723 234.331 480.437C234.019 480.151 233.638 480.008 233.187 480.008C232.329 480.008 231.705 480.416 231.315 481.23L230.301 480.632C230.587 480.043 230.982 479.597 231.484 479.293C231.996 478.99 232.559 478.838 233.174 478.838C233.937 478.838 234.6 479.09 235.163 479.592C235.727 480.095 236.008 480.771 236.008 481.62C236.008 482.539 235.467 483.54 234.383 484.623L232.056 486.937L236.177 486.937L236.177 488.107L230.301 488.107ZM239.199 479.007L240.239 479.007L240.239 488.107L239.043 488.107L239.043 480.307L237.106 480.879L236.807 479.839L239.199 479.007Z" fill="#454C66"/>
<path opacity="0.2" d="M34.1794 584.123L6.83589 584.123C3.06053 584.123 -1.3378e-07 587.183 -2.98806e-07 590.958L-1.49403e-06 618.302C-1.65906e-06 622.077 3.06053 625.138 6.83589 625.138L34.1794 625.138C37.9548 625.138 41.0153 622.077 41.0153 618.302L41.0153 590.958C41.0153 587.183 37.9548 584.123 34.1794 584.123Z" fill="#BDBDC2"/>
<path d="M17.5475 600.023L23.2285 600.023L23.2285 601.102L19.9135 609.123L18.6525 609.123L21.9415 601.167L17.5475 601.167L17.5475 600.023Z" fill="#454C66"/>
<path opacity="0.2" d="M91.1948 584.123L63.8513 584.123C60.0759 584.123 57.0154 587.183 57.0154 590.958L57.0154 618.302C57.0154 622.077 60.0759 625.138 63.8513 625.138L91.1948 625.138C94.9702 625.138 98.0307 622.077 98.0307 618.302L98.0307 590.958C98.0307 587.183 94.9702 584.123 91.1948 584.123Z" fill="#BDBDC2"/>
<path d="M79.2139 604.417C79.6559 604.642 80.0026 604.945 80.2539 605.327C80.5052 605.708 80.6309 606.141 80.6309 606.627C80.6309 607.459 80.3406 608.113 79.7599 608.59C79.1792 609.058 78.4296 609.292 77.5109 609.292C76.6009 609.292 75.8556 609.058 75.2749 608.59C74.6942 608.113 74.4039 607.459 74.4039 606.627C74.4039 606.141 74.5296 605.708 74.7809 605.327C75.0322 604.945 75.3789 604.642 75.8209 604.417C75.0756 603.949 74.7029 603.286 74.7029 602.428C74.7029 601.604 74.9759 600.972 75.5219 600.53C76.0766 600.079 76.7396 599.854 77.5109 599.854C78.2909 599.854 78.9539 600.079 79.4999 600.53C80.0546 600.972 80.3319 601.604 80.3319 602.428C80.3319 603.286 79.9592 603.949 79.2139 604.417ZM77.5109 601.011C77.0516 601.011 76.6659 601.132 76.3539 601.375C76.0506 601.617 75.8989 601.977 75.8989 602.454C75.8989 602.913 76.0549 603.273 76.3669 603.533C76.6789 603.784 77.0602 603.91 77.5109 603.91C77.9616 603.91 78.3429 603.784 78.6549 603.533C78.9669 603.273 79.1229 602.913 79.1229 602.454C79.1229 601.977 78.9712 601.617 78.6679 601.375C78.3646 601.132 77.9789 601.011 77.5109 601.011ZM77.5109 608.135C78.0916 608.135 78.5552 608 78.9019 607.732C79.2572 607.454 79.4349 607.06 79.4349 606.549C79.4349 606.046 79.2572 605.66 78.9019 605.392C78.5552 605.114 78.0916 604.976 77.5109 604.976C76.9389 604.976 76.4752 605.114 76.1199 605.392C75.7732 605.66 75.5999 606.046 75.5999 606.549C75.5999 607.06 75.7732 607.454 76.1199 607.732C76.4752 608 76.9389 608.135 77.5109 608.135Z" fill="#454C66"/>
<path opacity="0.2" d="M34.1794 641.138L6.83589 641.138C3.06053 641.138 -1.3378e-07 644.198 -2.98806e-07 647.974L-1.49403e-06 675.317C-1.65906e-06 679.092 3.06053 682.153 6.83589 682.153L34.1794 682.153C37.9548 682.153 41.0153 679.092 41.0153 675.317L41.0153 647.974C41.0153 644.198 37.9548 641.138 34.1794 641.138Z" fill="#BDBDC2"/>
<path d="M23.6324 659.924C23.6324 660.626 23.4461 661.237 23.0734 661.757L23.0864 661.757L20.1484 666.138L18.7834 666.138L20.9414 662.953C20.7508 662.97 20.6034 662.979 20.4994 662.979C19.5808 662.979 18.8268 662.697 18.2374 662.134C17.6568 661.562 17.3664 660.825 17.3664 659.924C17.3664 659.022 17.6568 658.29 18.2374 657.727C18.8268 657.155 19.5808 656.869 20.4994 656.869C21.4181 656.869 22.1678 657.155 22.7484 657.727C23.3378 658.29 23.6324 659.022 23.6324 659.924ZM19.0954 658.546C18.7401 658.892 18.5624 659.352 18.5624 659.924C18.5624 660.496 18.7401 660.959 19.0954 661.315C19.4594 661.661 19.9274 661.835 20.4994 661.835C21.0714 661.835 21.5351 661.661 21.8904 661.315C22.2544 660.959 22.4364 660.496 22.4364 659.924C22.4364 659.352 22.2588 658.892 21.9034 658.546C21.5481 658.199 21.0801 658.026 20.4994 658.026C19.9274 658.026 19.4594 658.199 19.0954 658.546Z" fill="#454C66"/>
<path opacity="0.2" d="M91.1948 641.138L63.8513 641.138C60.0759 641.138 57.0154 644.198 57.0154 647.974L57.0154 675.317C57.0154 679.092 60.0759 682.153 63.8513 682.153L91.1948 682.153C94.9702 682.153 98.0307 679.092 98.0307 675.317L98.0307 647.974C98.0307 644.198 94.9702 641.138 91.1948 641.138Z" fill="#BDBDC2"/>
<path d="M80.6478 659.924C80.6478 660.626 80.4615 661.237 80.0888 661.757L80.1018 661.757L77.1638 666.138L75.7988 666.138L77.9568 662.953C77.7662 662.97 77.6188 662.979 77.5148 662.979C76.5962 662.979 75.8422 662.697 75.2528 662.134C74.6722 661.562 74.3818 660.825 74.3818 659.924C74.3818 659.022 74.6722 658.29 75.2528 657.727C75.8422 657.155 76.5962 656.869 77.5148 656.869C78.4335 656.869 79.1832 657.155 79.7638 657.727C80.3532 658.29 80.6478 659.022 80.6478 659.924ZM76.1108 658.546C75.7555 658.892 75.5778 659.352 75.5778 659.924C75.5778 660.496 75.7555 660.959 76.1108 661.315C76.4748 661.661 76.9428 661.835 77.5148 661.835C78.0868 661.835 78.5505 661.661 78.9058 661.315C79.2698 660.959 79.4518 660.496 79.4518 659.924C79.4518 659.352 79.2742 658.892 78.9188 658.546C78.5635 658.199 78.0955 658.026 77.5148 658.026C76.9428 658.026 76.4748 658.199 76.1108 658.546Z" fill="#454C66"/>
<path opacity="0.2" d="M34.1794 698.153L6.83589 698.153C3.06053 698.153 -1.3378e-07 701.214 -2.98806e-07 704.989L-1.49403e-06 732.333C-1.65906e-06 736.108 3.06053 739.169 6.83589 739.169L34.1794 739.169C37.9548 739.169 41.0153 736.108 41.0153 732.333L41.0153 704.989C41.0153 701.214 37.9548 698.153 34.1794 698.153Z" fill="#BDBDC2"/>
<path d="M18.4402 714.053L19.4802 714.053L19.4802 723.153L18.2842 723.153L18.2842 715.353L16.3472 715.925L16.0482 714.885L18.4402 714.053ZM23.074 714.053L24.114 714.053L24.114 723.153L22.918 723.153L22.918 715.353L20.981 715.925L20.682 714.885L23.074 714.053Z" fill="#454C66"/>
<path opacity="0.2" d="M91.1948 698.153L63.8513 698.153C60.0759 698.153 57.0154 701.214 57.0154 704.989L57.0154 732.333C57.0154 736.108 60.0759 739.169 63.8513 739.169L91.1948 739.169C94.9702 739.169 98.0307 736.108 98.0307 732.333L98.0307 704.989C98.0307 701.214 94.9702 698.153 91.1948 698.153Z" fill="#BDBDC2"/>
<path d="M73.8448 714.053L74.8848 714.053L74.8848 723.153L73.6888 723.153L73.6888 715.353L71.7518 715.925L71.4528 714.885L73.8448 714.053ZM76.3725 723.153L76.3725 722.165L79.5835 718.889C80.4415 718.031 80.8705 717.295 80.8705 716.679C80.8705 716.168 80.7145 715.769 80.4025 715.483C80.0905 715.197 79.7092 715.054 79.2585 715.054C78.4005 715.054 77.7765 715.462 77.3865 716.276L76.3725 715.678C76.6585 715.089 77.0529 714.643 77.5555 714.339C78.0669 714.036 78.6302 713.884 79.2455 713.884C80.0082 713.884 80.6712 714.136 81.2345 714.638C81.7979 715.141 82.0795 715.817 82.0795 716.666C82.0795 717.585 81.5379 718.586 80.4545 719.669L78.1275 721.983L82.2485 721.983L82.2485 723.153L76.3725 723.153Z" fill="#454C66"/>
<path opacity="0.2" d="M34.1794 755.168L6.83589 755.168C3.06053 755.168 -1.3378e-07 758.229 -2.98806e-07 762.004L-1.49403e-06 789.348C-1.65906e-06 793.123 3.06053 796.184 6.83589 796.184L34.1794 796.184C37.9548 796.184 41.0153 793.123 41.0153 789.348L41.0153 762.004C41.0153 758.229 37.9548 755.168 34.1794 755.168Z" fill="#BDBDC2"/>
<path d="M17.2786 771.068L18.3186 771.068L18.3186 780.168L17.1226 780.168L17.1226 772.368L15.1856 772.94L14.8866 771.9L17.2786 771.068ZM23.4464 774.799C24.1397 774.929 24.7074 775.228 25.1494 775.696C25.5914 776.164 25.8124 776.758 25.8124 777.477C25.8124 778.361 25.509 779.059 24.9024 779.57C24.2957 780.082 23.559 780.337 22.6924 780.337C21.999 780.337 21.3837 780.181 20.8464 779.869C20.309 779.549 19.9277 779.089 19.7024 778.491L20.7164 777.893C20.985 778.734 21.6437 779.154 22.6924 779.154C23.2557 779.154 23.715 779.007 24.0704 778.712C24.4257 778.418 24.6034 778.006 24.6034 777.477C24.6034 776.949 24.4257 776.537 24.0704 776.242C23.715 775.939 23.2557 775.787 22.6924 775.787L22.3804 775.787L21.8994 775.046L24.0054 772.199L19.9624 772.199L19.9624 771.068L25.4224 771.068L25.4224 772.134L23.4464 774.799Z" fill="#454C66"/>
<path opacity="0.2" d="M91.1948 755.168L63.8513 755.168C60.0759 755.168 57.0154 758.229 57.0154 762.004L57.0154 789.348C57.0154 793.123 60.0759 796.184 63.8513 796.184L91.1948 796.184C94.9702 796.184 98.0307 793.123 98.0307 789.348L98.0307 762.004C98.0307 758.229 94.9702 755.168 91.1948 755.168Z" fill="#BDBDC2"/>
<path d="M74.002 771.068L75.042 771.068L75.042 780.168L73.846 780.168L73.846 772.368L71.909 772.94L71.61 771.9L74.002 771.068ZM83.3288 777.308L83.3288 778.439L82.2238 778.439L82.2238 780.168L81.0148 780.168L81.0148 778.439L76.3738 778.439L76.3738 777.308L79.6368 771.068L80.9368 771.068L77.6738 777.308L81.0148 777.308L81.0148 774.734L82.2238 774.734L82.2238 777.308L83.3288 777.308Z" fill="#454C66"/>
<path opacity="0.2" d="M34.1794 812.184L6.83589 812.184C3.06053 812.184 -1.3378e-07 815.245 -2.98806e-07 819.02L-1.49403e-06 846.364C-1.65906e-06 850.139 3.06053 853.199 6.83589 853.199L34.1794 853.199C37.9548 853.199 41.0153 850.139 41.0153 846.364L41.0153 819.02C41.0153 815.245 37.9548 812.184 34.1794 812.184Z" fill="#BDBDC2"/>
<path d="M17.2278 828.084L18.2678 828.084L18.2678 837.184L17.0718 837.184L17.0718 829.384L15.1348 829.956L14.8358 828.916L17.2278 828.084ZM22.7976 831.633C23.6556 831.633 24.3793 831.889 24.9686 832.4C25.5666 832.903 25.8656 833.6 25.8656 834.493C25.8656 835.377 25.5623 836.075 24.9556 836.586C24.3489 837.097 23.6123 837.353 22.7456 837.353C22.0523 837.353 21.4326 837.188 20.8866 836.859C20.3406 836.521 19.9593 836.036 19.7426 835.403L20.7696 834.818C20.8909 835.26 21.1249 835.598 21.4716 835.832C21.8183 836.057 22.2429 836.17 22.7456 836.17C23.3176 836.17 23.7813 836.023 24.1366 835.728C24.4919 835.433 24.6696 835.022 24.6696 834.493C24.6696 833.964 24.4919 833.553 24.1366 833.258C23.7813 832.955 23.3263 832.803 22.7716 832.803L20.1976 832.803L20.5356 828.084L25.5146 828.084L25.5146 829.215L21.6276 829.215L21.4716 831.633L22.7976 831.633Z" fill="#454C66"/>
<path opacity="0.2" d="M91.1948 812.184L63.8513 812.184C60.0759 812.184 57.0154 815.245 57.0154 819.02L57.0154 846.364C57.0154 850.139 60.0759 853.199 63.8513 853.199L91.1948 853.199C94.9702 853.199 98.0307 850.139 98.0307 846.364L98.0307 819.02C98.0307 815.245 94.9702 812.184 91.1948 812.184Z" fill="#BDBDC2"/>
<path d="M74.2749 828.084L75.3149 828.084L75.3149 837.184L74.1189 837.184L74.1189 829.384L72.1819 829.956L71.8829 828.916L74.2749 828.084ZM79.8317 831.23C80.7417 831.23 81.4914 831.516 82.0807 832.088C82.6701 832.651 82.9647 833.384 82.9647 834.285C82.9647 835.186 82.6701 835.923 82.0807 836.495C81.4914 837.067 80.7417 837.353 79.8317 837.353C78.9131 837.353 78.1591 837.067 77.5697 836.495C76.9891 835.923 76.6987 835.186 76.6987 834.285C76.6987 833.583 76.8807 832.976 77.2447 832.465L80.1697 828.084L81.5477 828.084L79.4027 831.256C79.5934 831.239 79.7364 831.23 79.8317 831.23ZM78.4277 835.676C78.7917 836.023 79.2597 836.196 79.8317 836.196C80.4037 836.196 80.8674 836.023 81.2227 835.676C81.5867 835.321 81.7687 834.857 81.7687 834.285C81.7687 833.713 81.5867 833.254 81.2227 832.907C80.8674 832.56 80.4037 832.387 79.8317 832.387C79.2511 832.387 78.7831 832.56 78.4277 832.907C78.0724 833.254 77.8947 833.713 77.8947 834.285C77.8947 834.857 78.0724 835.321 78.4277 835.676Z" fill="#454C66"/>
<path opacity="0.2" d="M192.21 584.123L164.867 584.123C161.091 584.123 158.031 587.183 158.031 590.958L158.031 618.302C158.031 622.077 161.091 625.138 164.867 625.138L192.21 625.138C195.986 625.138 199.046 622.077 199.046 618.302L199.046 590.958C199.046 587.183 195.986 584.123 192.21 584.123Z" fill="#BDBDC2"/>
<path d="M172.156 609.123L172.156 608.135L175.367 604.859C176.225 604.001 176.654 603.264 176.654 602.649C176.654 602.137 176.498 601.739 176.186 601.453C175.874 601.167 175.493 601.024 175.042 601.024C174.184 601.024 173.56 601.431 173.17 602.246L172.156 601.648C172.442 601.058 172.836 600.612 173.339 600.309C173.85 600.005 174.414 599.854 175.029 599.854C175.792 599.854 176.455 600.105 177.018 600.608C177.581 601.11 177.863 601.786 177.863 602.636C177.863 603.554 177.321 604.555 176.238 605.639L173.911 607.953L178.032 607.953L178.032 609.123L172.156 609.123ZM182.525 603.754C183.218 603.884 183.786 604.183 184.228 604.651C184.67 605.119 184.891 605.712 184.891 606.432C184.891 607.316 184.587 608.013 183.981 608.525C183.374 609.036 182.637 609.292 181.771 609.292C181.077 609.292 180.462 609.136 179.925 608.824C179.387 608.503 179.006 608.044 178.781 607.446L179.795 606.848C180.063 607.688 180.722 608.109 181.771 608.109C182.334 608.109 182.793 607.961 183.149 607.667C183.504 607.372 183.682 606.96 183.682 606.432C183.682 605.903 183.504 605.491 183.149 605.197C182.793 604.893 182.334 604.742 181.771 604.742L181.459 604.742L180.978 604.001L183.084 601.154L179.041 601.154L179.041 600.023L184.501 600.023L184.501 601.089L182.525 603.754Z" fill="#454C66"/>
<path opacity="0.2" d="M249.226 584.123L221.882 584.123C218.107 584.123 215.046 587.183 215.046 590.958L215.046 618.302C215.046 622.077 218.107 625.138 221.882 625.138L249.226 625.138C253.001 625.138 256.061 622.077 256.061 618.302L256.061 590.958C256.061 587.183 253.001 584.123 249.226 584.123Z" fill="#BDBDC2"/>
<path d="M228.93 609.123L228.93 608.135L232.141 604.859C232.999 604.001 233.428 603.264 233.428 602.649C233.428 602.137 233.272 601.739 232.96 601.453C232.648 601.167 232.267 601.024 231.816 601.024C230.958 601.024 230.334 601.431 229.944 602.246L228.93 601.648C229.216 601.058 229.61 600.612 230.113 600.309C230.624 600.005 231.188 599.854 231.803 599.854C232.566 599.854 233.229 600.105 233.792 600.608C234.355 601.11 234.637 601.786 234.637 602.636C234.637 603.554 234.095 604.555 233.012 605.639L230.685 607.953L234.806 607.953L234.806 609.123L228.93 609.123ZM242.356 606.263L242.356 607.394L241.251 607.394L241.251 609.123L240.042 609.123L240.042 607.394L235.401 607.394L235.401 606.263L238.664 600.023L239.964 600.023L236.701 606.263L240.042 606.263L240.042 603.689L241.251 603.689L241.251 606.263L242.356 606.263Z" fill="#454C66"/>
<path opacity="0.2" d="M192.21 641.138L164.867 641.138C161.091 641.138 158.031 644.198 158.031 647.974L158.031 675.317C158.031 679.092 161.091 682.153 164.867 682.153L192.21 682.153C195.986 682.153 199.046 679.092 199.046 675.317L199.046 647.974C199.046 644.198 195.986 641.138 192.21 641.138Z" fill="#BDBDC2"/>
<path d="M172.093 666.138L172.093 665.15L175.304 661.874C176.162 661.016 176.591 660.279 176.591 659.664C176.591 659.152 176.435 658.754 176.123 658.468C175.811 658.182 175.429 658.039 174.979 658.039C174.121 658.039 173.497 658.446 173.107 659.261L172.093 658.663C172.379 658.073 172.773 657.627 173.276 657.324C173.787 657.02 174.35 656.869 174.966 656.869C175.728 656.869 176.391 657.12 176.955 657.623C177.518 658.125 177.8 658.801 177.8 659.651C177.8 660.569 177.258 661.57 176.175 662.654L173.848 664.968L177.969 664.968L177.969 666.138L172.093 666.138ZM181.888 660.587C182.746 660.587 183.47 660.842 184.059 661.354C184.657 661.856 184.956 662.554 184.956 663.447C184.956 664.331 184.653 665.028 184.046 665.54C183.44 666.051 182.703 666.307 181.836 666.307C181.143 666.307 180.523 666.142 179.977 665.813C179.431 665.475 179.05 664.989 178.833 664.357L179.86 663.772C179.982 664.214 180.216 664.552 180.562 664.786C180.909 665.011 181.334 665.124 181.836 665.124C182.408 665.124 182.872 664.976 183.227 664.682C183.583 664.387 183.76 663.975 183.76 663.447C183.76 662.918 183.583 662.506 183.227 662.212C182.872 661.908 182.417 661.757 181.862 661.757L179.288 661.757L179.626 657.038L184.605 657.038L184.605 658.169L180.718 658.169L180.562 660.587L181.888 660.587Z" fill="#454C66"/>
<path opacity="0.2" d="M249.226 641.138L221.882 641.138C218.107 641.138 215.046 644.198 215.046 647.974L215.046 675.317C215.046 679.092 218.107 682.153 221.882 682.153L249.226 682.153C253.001 682.153 256.061 679.092 256.061 675.317L256.061 647.974C256.061 644.198 253.001 641.138 249.226 641.138Z" fill="#BDBDC2"/>
<path d="M229.203 666.138L229.203 665.15L232.414 661.874C233.272 661.016 233.701 660.279 233.701 659.664C233.701 659.152 233.545 658.754 233.233 658.468C232.921 658.182 232.54 658.039 232.089 658.039C231.231 658.039 230.607 658.446 230.217 659.261L229.203 658.663C229.489 658.073 229.883 657.627 230.386 657.324C230.897 657.02 231.461 656.869 232.076 656.869C232.839 656.869 233.502 657.12 234.065 657.623C234.628 658.125 234.91 658.801 234.91 659.651C234.91 660.569 234.368 661.57 233.285 662.654L230.958 664.968L235.079 664.968L235.079 666.138L229.203 666.138ZM238.859 660.184C239.769 660.184 240.519 660.47 241.108 661.042C241.697 661.605 241.992 662.337 241.992 663.239C241.992 664.14 241.697 664.877 241.108 665.449C240.519 666.021 239.769 666.307 238.859 666.307C237.94 666.307 237.186 666.021 236.597 665.449C236.016 664.877 235.726 664.14 235.726 663.239C235.726 662.537 235.908 661.93 236.272 661.419L239.197 657.038L240.575 657.038L238.43 660.21C238.621 660.192 238.764 660.184 238.859 660.184ZM237.455 664.63C237.819 664.976 238.287 665.15 238.859 665.15C239.431 665.15 239.895 664.976 240.25 664.63C240.614 664.274 240.796 663.811 240.796 663.239C240.796 662.667 240.614 662.207 240.25 661.861C239.895 661.514 239.431 661.341 238.859 661.341C238.278 661.341 237.81 661.514 237.455 661.861C237.1 662.207 236.922 662.667 236.922 663.239C236.922 663.811 237.1 664.274 237.455 664.63Z" fill="#454C66"/>
<path opacity="0.2" d="M192.21 698.153L164.867 698.153C161.091 698.153 158.031 701.214 158.031 704.989L158.031 732.333C158.031 736.108 161.091 739.169 164.867 739.169L192.21 739.169C195.986 739.169 199.046 736.108 199.046 732.333L199.046 704.989C199.046 701.214 195.986 698.153 192.21 698.153Z" fill="#BDBDC2"/>
<path d="M172.511 723.153L172.511 722.165L175.722 718.889C176.58 718.031 177.009 717.295 177.009 716.679C177.009 716.168 176.853 715.769 176.541 715.483C176.229 715.197 175.848 715.054 175.397 715.054C174.539 715.054 173.915 715.462 173.525 716.276L172.511 715.678C172.797 715.089 173.192 714.643 173.694 714.339C174.206 714.036 174.769 713.884 175.384 713.884C176.147 713.884 176.81 714.136 177.373 714.638C177.937 715.141 178.218 715.817 178.218 716.666C178.218 717.585 177.677 718.586 176.593 719.669L174.266 721.983L178.387 721.983L178.387 723.153L172.511 723.153ZM178.879 714.053L184.56 714.053L184.56 715.132L181.245 723.153L179.984 723.153L183.273 715.197L178.879 715.197L178.879 714.053Z" fill="#454C66"/>
<path opacity="0.2" d="M249.226 698.153L221.882 698.153C218.107 698.153 215.046 701.214 215.046 704.989L215.046 732.333C215.046 736.108 218.107 739.169 221.882 739.169L249.226 739.169C253.001 739.169 256.061 736.108 256.061 732.333L256.061 704.989C256.061 701.214 253.001 698.153 249.226 698.153Z" fill="#BDBDC2"/>
<path d="M229.013 723.153L229.013 722.165L232.224 718.889C233.082 718.031 233.511 717.295 233.511 716.679C233.511 716.168 233.355 715.769 233.043 715.483C232.731 715.197 232.349 715.054 231.899 715.054C231.041 715.054 230.417 715.462 230.027 716.276L229.013 715.678C229.299 715.089 229.693 714.643 230.196 714.339C230.707 714.036 231.27 713.884 231.886 713.884C232.648 713.884 233.311 714.136 233.875 714.638C234.438 715.141 234.72 715.817 234.72 716.666C234.72 717.585 234.178 718.586 233.095 719.669L230.768 721.983L234.889 721.983L234.889 723.153L229.013 723.153ZM240.641 718.447C241.083 718.673 241.429 718.976 241.681 719.357C241.932 719.739 242.058 720.172 242.058 720.657C242.058 721.489 241.767 722.144 241.187 722.62C240.606 723.088 239.856 723.322 238.938 723.322C238.028 723.322 237.282 723.088 236.702 722.62C236.121 722.144 235.831 721.489 235.831 720.657C235.831 720.172 235.956 719.739 236.208 719.357C236.459 718.976 236.806 718.673 237.248 718.447C236.502 717.979 236.13 717.316 236.13 716.458C236.13 715.635 236.403 715.002 236.949 714.56C237.503 714.11 238.166 713.884 238.938 713.884C239.718 713.884 240.381 714.11 240.927 714.56C241.481 715.002 241.759 715.635 241.759 716.458C241.759 717.316 241.386 717.979 240.641 718.447ZM238.938 715.041C238.478 715.041 238.093 715.163 237.781 715.405C237.477 715.648 237.326 716.008 237.326 716.484C237.326 716.944 237.482 717.303 237.794 717.563C238.106 717.815 238.487 717.94 238.938 717.94C239.388 717.94 239.77 717.815 240.082 717.563C240.394 717.303 240.55 716.944 240.55 716.484C240.55 716.008 240.398 715.648 240.095 715.405C239.791 715.163 239.406 715.041 238.938 715.041ZM238.938 722.165C239.518 722.165 239.982 722.031 240.329 721.762C240.684 721.485 240.862 721.091 240.862 720.579C240.862 720.077 240.684 719.691 240.329 719.422C239.982 719.145 239.518 719.006 238.938 719.006C238.366 719.006 237.902 719.145 237.547 719.422C237.2 719.691 237.027 720.077 237.027 720.579C237.027 721.091 237.2 721.485 237.547 721.762C237.902 722.031 238.366 722.165 238.938 722.165Z" fill="#454C66"/>
<path opacity="0.2" d="M192.21 755.168L164.867 755.168C161.091 755.168 158.031 758.229 158.031 762.004L158.031 789.348C158.031 793.123 161.091 796.184 164.867 796.184L192.21 796.184C195.986 796.184 199.046 793.123 199.046 789.348L199.046 762.004C199.046 758.229 195.986 755.168 192.21 755.168Z" fill="#BDBDC2"/>
<path d="M172.093 780.168L172.093 779.18L175.304 775.904C176.162 775.046 176.591 774.31 176.591 773.694C176.591 773.183 176.435 772.784 176.123 772.498C175.811 772.212 175.429 772.069 174.979 772.069C174.121 772.069 173.497 772.477 173.107 773.291L172.093 772.693C172.379 772.104 172.773 771.658 173.276 771.354C173.787 771.051 174.35 770.899 174.966 770.899C175.728 770.899 176.391 771.151 176.955 771.653C177.518 772.156 177.8 772.832 177.8 773.681C177.8 774.6 177.258 775.601 176.175 776.684L173.848 778.998L177.969 778.998L177.969 780.168L172.093 780.168ZM185.072 773.954C185.072 774.656 184.886 775.267 184.513 775.787L184.526 775.787L181.588 780.168L180.223 780.168L182.381 776.983C182.19 777.001 182.043 777.009 181.939 777.009C181.02 777.009 180.266 776.728 179.677 776.164C179.096 775.592 178.806 774.856 178.806 773.954C178.806 773.053 179.096 772.321 179.677 771.757C180.266 771.185 181.02 770.899 181.939 770.899C182.858 770.899 183.607 771.185 184.188 771.757C184.777 772.321 185.072 773.053 185.072 773.954ZM180.535 772.576C180.18 772.923 180.002 773.382 180.002 773.954C180.002 774.526 180.18 774.99 180.535 775.345C180.899 775.692 181.367 775.865 181.939 775.865C182.511 775.865 182.975 775.692 183.33 775.345C183.694 774.99 183.876 774.526 183.876 773.954C183.876 773.382 183.698 772.923 183.343 772.576C182.988 772.23 182.52 772.056 181.939 772.056C181.367 772.056 180.899 772.23 180.535 772.576Z" fill="#454C66"/>
<path opacity="0.2" d="M249.226 755.168L221.882 755.168C218.107 755.168 215.046 758.229 215.046 762.004L215.046 789.348C215.046 793.123 218.107 796.184 221.882 796.184L249.226 796.184C253.001 796.184 256.061 793.123 256.061 789.348L256.061 762.004C256.061 758.229 253.001 755.168 249.226 755.168Z" fill="#BDBDC2"/>
<path d="M232.081 774.799C232.775 774.929 233.342 775.228 233.784 775.696C234.226 776.164 234.447 776.758 234.447 777.477C234.447 778.361 234.144 779.059 233.537 779.57C232.931 780.082 232.194 780.337 231.327 780.337C230.634 780.337 230.019 780.181 229.481 779.869C228.944 779.549 228.563 779.089 228.337 778.491L229.351 777.893C229.62 778.734 230.279 779.154 231.327 779.154C231.891 779.154 232.35 779.007 232.705 778.712C233.061 778.418 233.238 778.006 233.238 777.477C233.238 776.949 233.061 776.537 232.705 776.242C232.35 775.939 231.891 775.787 231.327 775.787L231.015 775.787L230.534 775.046L232.64 772.199L228.597 772.199L228.597 771.068L234.057 771.068L234.057 772.134L232.081 774.799ZM241.612 779.05C240.997 779.908 240.135 780.337 239.025 780.337C237.916 780.337 237.054 779.908 236.438 779.05C235.823 778.192 235.515 777.048 235.515 775.618C235.515 774.188 235.823 773.044 236.438 772.186C237.054 771.328 237.916 770.899 239.025 770.899C240.135 770.899 240.997 771.328 241.612 772.186C242.228 773.044 242.535 774.188 242.535 775.618C242.535 777.048 242.228 778.192 241.612 779.05ZM237.322 778.231C237.721 778.847 238.289 779.154 239.025 779.154C239.762 779.154 240.33 778.847 240.728 778.231C241.136 777.616 241.339 776.745 241.339 775.618C241.339 774.492 241.136 773.621 240.728 773.005C240.33 772.381 239.762 772.069 239.025 772.069C238.289 772.069 237.721 772.377 237.322 772.992C236.924 773.608 236.724 774.483 236.724 775.618C236.724 776.745 236.924 777.616 237.322 778.231Z" fill="#454C66"/>
<path opacity="0.2" d="M192.21 812.184L164.867 812.184C161.091 812.184 158.031 815.245 158.031 819.02L158.031 846.364C158.031 850.139 161.091 853.199 164.867 853.199L192.21 853.199C195.986 853.199 199.046 850.139 199.046 846.364L199.046 819.02C199.046 815.245 195.986 812.184 192.21 812.184Z" fill="#BDBDC2"/>
<path d="M176.926 831.815C177.619 831.945 178.187 832.244 178.629 832.712C179.071 833.18 179.292 833.774 179.292 834.493C179.292 835.377 178.989 836.075 178.382 836.586C177.775 837.097 177.039 837.353 176.172 837.353C175.479 837.353 174.863 837.197 174.326 836.885C173.789 836.564 173.407 836.105 173.182 835.507L174.196 834.909C174.465 835.75 175.123 836.17 176.172 836.17C176.735 836.17 177.195 836.023 177.55 835.728C177.905 835.433 178.083 835.022 178.083 834.493C178.083 833.964 177.905 833.553 177.55 833.258C177.195 832.955 176.735 832.803 176.172 832.803L175.86 832.803L175.379 832.062L177.485 829.215L173.442 829.215L173.442 828.084L178.902 828.084L178.902 829.15L176.926 831.815ZM182.184 828.084L183.224 828.084L183.224 837.184L182.028 837.184L182.028 829.384L180.091 829.956L179.792 828.916L182.184 828.084Z" fill="#454C66"/>
<path opacity="0.2" d="M249.226 812.184L221.882 812.184C218.107 812.184 215.046 815.245 215.046 819.02L215.046 846.364C215.046 850.139 218.107 853.199 221.882 853.199L249.226 853.199C253.001 853.199 256.061 850.139 256.061 846.364L256.061 819.02C256.061 815.245 253.001 812.184 249.226 812.184Z" fill="#BDBDC2"/>
<path d="M230.301 837.184L230.301 836.196L233.512 832.92C234.37 832.062 234.799 831.325 234.799 830.71C234.799 830.199 234.643 829.8 234.331 829.514C234.019 829.228 233.638 829.085 233.187 829.085C232.329 829.085 231.705 829.492 231.315 830.307L230.301 829.709C230.587 829.12 230.982 828.673 231.484 828.37C231.996 828.067 232.559 827.915 233.174 827.915C233.937 827.915 234.6 828.166 235.163 828.669C235.727 829.172 236.008 829.848 236.008 830.697C236.008 831.616 235.467 832.617 234.383 833.7L232.056 836.014L236.177 836.014L236.177 837.184L230.301 837.184ZM239.199 828.084L240.239 828.084L240.239 837.184L239.043 837.184L239.043 829.384L237.106 829.956L236.807 828.916L239.199 828.084Z" fill="#454C66"/>
</svg>
